<mxfile host="app.diagrams.net" agent="Mozilla/5.0 (Windows NT 10.0; Win64; x64) AppleWebKit/537.36 (KHTML, like Gecko) Chrome/138.0.0.0 Safari/537.36 Edg/138.0.0.0" version="28.0.6" pages="4">
  <diagram name="blk超时" id="UyGjig5gVW3Z0PGqcg_s">
    <mxGraphModel dx="1086" dy="733" grid="1" gridSize="10" guides="1" tooltips="1" connect="1" arrows="1" fold="1" page="1" pageScale="1" pageWidth="827" pageHeight="1169" math="0" shadow="0">
      <root>
        <mxCell id="0" />
        <mxCell id="1" parent="0" />
        <mxCell id="GoMAQmLYidIc4yrxQR3_-5" style="edgeStyle=orthogonalEdgeStyle;rounded=0;orthogonalLoop=1;jettySize=auto;html=1;exitX=0.25;exitY=1;exitDx=0;exitDy=0;entryX=0;entryY=0.5;entryDx=0;entryDy=0;" edge="1" parent="1" source="GoMAQmLYidIc4yrxQR3_-1" target="GoMAQmLYidIc4yrxQR3_-2">
          <mxGeometry relative="1" as="geometry" />
        </mxCell>
        <mxCell id="GoMAQmLYidIc4yrxQR3_-6" style="edgeStyle=orthogonalEdgeStyle;rounded=0;orthogonalLoop=1;jettySize=auto;html=1;exitX=0.25;exitY=1;exitDx=0;exitDy=0;entryX=0;entryY=0.5;entryDx=0;entryDy=0;" edge="1" parent="1" source="GoMAQmLYidIc4yrxQR3_-1" target="GoMAQmLYidIc4yrxQR3_-3">
          <mxGeometry relative="1" as="geometry" />
        </mxCell>
        <mxCell id="GoMAQmLYidIc4yrxQR3_-7" style="edgeStyle=orthogonalEdgeStyle;rounded=0;orthogonalLoop=1;jettySize=auto;html=1;exitX=0.25;exitY=1;exitDx=0;exitDy=0;entryX=0;entryY=0.5;entryDx=0;entryDy=0;" edge="1" parent="1" source="GoMAQmLYidIc4yrxQR3_-1" target="GoMAQmLYidIc4yrxQR3_-4">
          <mxGeometry relative="1" as="geometry" />
        </mxCell>
        <mxCell id="GoMAQmLYidIc4yrxQR3_-1" value="blk_mq_timeout_work" style="rounded=1;whiteSpace=wrap;html=1;fontFamily=Lucida Console;" vertex="1" parent="1">
          <mxGeometry width="150" height="30" as="geometry" />
        </mxCell>
        <mxCell id="GoMAQmLYidIc4yrxQR3_-2" value="percpu_ref_tryget(&amp;amp;q-&amp;gt;q_usage_counter)" style="rounded=1;whiteSpace=wrap;html=1;fontFamily=Lucida Console;" vertex="1" parent="1">
          <mxGeometry x="60" y="50" width="290" height="30" as="geometry" />
        </mxCell>
        <mxCell id="GoMAQmLYidIc4yrxQR3_-29" style="edgeStyle=orthogonalEdgeStyle;rounded=0;orthogonalLoop=1;jettySize=auto;html=1;exitX=0.25;exitY=1;exitDx=0;exitDy=0;entryX=0;entryY=0.5;entryDx=0;entryDy=0;" edge="1" parent="1" source="GoMAQmLYidIc4yrxQR3_-3" target="GoMAQmLYidIc4yrxQR3_-28">
          <mxGeometry relative="1" as="geometry" />
        </mxCell>
        <mxCell id="GoMAQmLYidIc4yrxQR3_-31" style="edgeStyle=orthogonalEdgeStyle;rounded=0;orthogonalLoop=1;jettySize=auto;html=1;exitX=0.25;exitY=1;exitDx=0;exitDy=0;entryX=0;entryY=0.5;entryDx=0;entryDy=0;" edge="1" parent="1" source="GoMAQmLYidIc4yrxQR3_-28" target="GoMAQmLYidIc4yrxQR3_-30">
          <mxGeometry relative="1" as="geometry" />
        </mxCell>
        <mxCell id="GoMAQmLYidIc4yrxQR3_-3" value="blk_mq_queue_tag_busy_iter" style="rounded=1;whiteSpace=wrap;html=1;fontFamily=Lucida Console;" vertex="1" parent="1">
          <mxGeometry x="60" y="100" width="200" height="30" as="geometry" />
        </mxCell>
        <mxCell id="GoMAQmLYidIc4yrxQR3_-4" value="blk_queue_exit" style="rounded=1;whiteSpace=wrap;html=1;fontFamily=Lucida Console;" vertex="1" parent="1">
          <mxGeometry x="60" y="260" width="130" height="30" as="geometry" />
        </mxCell>
        <mxCell id="GoMAQmLYidIc4yrxQR3_-8" style="edgeStyle=orthogonalEdgeStyle;rounded=0;orthogonalLoop=1;jettySize=auto;html=1;exitX=0.25;exitY=1;exitDx=0;exitDy=0;entryX=0;entryY=0.5;entryDx=0;entryDy=0;" edge="1" parent="1" source="GoMAQmLYidIc4yrxQR3_-11" target="GoMAQmLYidIc4yrxQR3_-12">
          <mxGeometry relative="1" as="geometry" />
        </mxCell>
        <mxCell id="GoMAQmLYidIc4yrxQR3_-9" style="edgeStyle=orthogonalEdgeStyle;rounded=0;orthogonalLoop=1;jettySize=auto;html=1;exitX=0.25;exitY=1;exitDx=0;exitDy=0;entryX=0;entryY=0.5;entryDx=0;entryDy=0;" edge="1" parent="1" source="GoMAQmLYidIc4yrxQR3_-11" target="GoMAQmLYidIc4yrxQR3_-13">
          <mxGeometry relative="1" as="geometry" />
        </mxCell>
        <mxCell id="GoMAQmLYidIc4yrxQR3_-10" style="edgeStyle=orthogonalEdgeStyle;rounded=0;orthogonalLoop=1;jettySize=auto;html=1;exitX=0.25;exitY=1;exitDx=0;exitDy=0;entryX=0;entryY=0.5;entryDx=0;entryDy=0;" edge="1" parent="1" source="GoMAQmLYidIc4yrxQR3_-11" target="GoMAQmLYidIc4yrxQR3_-14">
          <mxGeometry relative="1" as="geometry" />
        </mxCell>
        <mxCell id="GoMAQmLYidIc4yrxQR3_-11" value="bt_iter" style="rounded=1;whiteSpace=wrap;html=1;fontFamily=Lucida Console;" vertex="1" parent="1">
          <mxGeometry x="280" y="270" width="120" height="30" as="geometry" />
        </mxCell>
        <mxCell id="GoMAQmLYidIc4yrxQR3_-12" value="blk_mq_find_and_get_req" style="rounded=1;whiteSpace=wrap;html=1;fontFamily=Lucida Console;" vertex="1" parent="1">
          <mxGeometry x="340" y="320" width="200" height="30" as="geometry" />
        </mxCell>
        <mxCell id="GoMAQmLYidIc4yrxQR3_-13" value="iter_data-&amp;gt;fn()" style="rounded=1;whiteSpace=wrap;html=1;fontFamily=Lucida Console;" vertex="1" parent="1">
          <mxGeometry x="340" y="370" width="200" height="30" as="geometry" />
        </mxCell>
        <mxCell id="GoMAQmLYidIc4yrxQR3_-14" value="blk_mq_put_rq_ref" style="rounded=1;whiteSpace=wrap;html=1;fontFamily=Lucida Console;" vertex="1" parent="1">
          <mxGeometry x="340" y="420" width="160" height="30" as="geometry" />
        </mxCell>
        <mxCell id="GoMAQmLYidIc4yrxQR3_-15" value="blk_mq_check_expired" style="text;html=1;align=center;verticalAlign=middle;resizable=0;points=[];autosize=1;strokeColor=none;fillColor=none;" vertex="1" parent="1">
          <mxGeometry x="260" y="100" width="150" height="30" as="geometry" />
        </mxCell>
        <mxCell id="GoMAQmLYidIc4yrxQR3_-16" style="edgeStyle=orthogonalEdgeStyle;rounded=0;orthogonalLoop=1;jettySize=auto;html=1;exitX=0.25;exitY=1;exitDx=0;exitDy=0;entryX=0;entryY=0.5;entryDx=0;entryDy=0;" edge="1" parent="1" source="GoMAQmLYidIc4yrxQR3_-19" target="GoMAQmLYidIc4yrxQR3_-20">
          <mxGeometry relative="1" as="geometry" />
        </mxCell>
        <mxCell id="GoMAQmLYidIc4yrxQR3_-24" style="edgeStyle=orthogonalEdgeStyle;rounded=0;orthogonalLoop=1;jettySize=auto;html=1;exitX=0.25;exitY=1;exitDx=0;exitDy=0;entryX=0;entryY=0.5;entryDx=0;entryDy=0;" edge="1" parent="1" source="GoMAQmLYidIc4yrxQR3_-20" target="GoMAQmLYidIc4yrxQR3_-23">
          <mxGeometry relative="1" as="geometry" />
        </mxCell>
        <mxCell id="GoMAQmLYidIc4yrxQR3_-19" value="&lt;span style=&quot;font-family: Helvetica; text-wrap: nowrap;&quot;&gt;blk_mq_check_expired&lt;/span&gt;" style="rounded=1;whiteSpace=wrap;html=1;fontFamily=Lucida Console;" vertex="1" parent="1">
          <mxGeometry x="680" y="285" width="130" height="30" as="geometry" />
        </mxCell>
        <mxCell id="GoMAQmLYidIc4yrxQR3_-27" style="edgeStyle=orthogonalEdgeStyle;rounded=0;orthogonalLoop=1;jettySize=auto;html=1;exitX=0.25;exitY=1;exitDx=0;exitDy=0;entryX=0;entryY=0.5;entryDx=0;entryDy=0;" edge="1" parent="1" source="GoMAQmLYidIc4yrxQR3_-20" target="GoMAQmLYidIc4yrxQR3_-26">
          <mxGeometry relative="1" as="geometry" />
        </mxCell>
        <mxCell id="GoMAQmLYidIc4yrxQR3_-20" value="blk_mq_rq_timed_out" style="rounded=1;whiteSpace=wrap;html=1;fontFamily=Lucida Console;" vertex="1" parent="1">
          <mxGeometry x="740" y="335" width="200" height="30" as="geometry" />
        </mxCell>
        <mxCell id="GoMAQmLYidIc4yrxQR3_-23" value="req-&amp;gt;q-&amp;gt;mq_ops-&amp;gt;timeout()" style="rounded=1;whiteSpace=wrap;html=1;fontFamily=Lucida Console;" vertex="1" parent="1">
          <mxGeometry x="820" y="395" width="200" height="30" as="geometry" />
        </mxCell>
        <mxCell id="GoMAQmLYidIc4yrxQR3_-26" value="blk_add_timer" style="rounded=1;whiteSpace=wrap;html=1;fontFamily=Lucida Console;" vertex="1" parent="1">
          <mxGeometry x="820" y="455" width="160" height="30" as="geometry" />
        </mxCell>
        <mxCell id="GoMAQmLYidIc4yrxQR3_-28" value="queue_for_each_hw_ctx" style="rounded=1;whiteSpace=wrap;html=1;fontFamily=Lucida Console;" vertex="1" parent="1">
          <mxGeometry x="140" y="160" width="190" height="30" as="geometry" />
        </mxCell>
        <mxCell id="GoMAQmLYidIc4yrxQR3_-32" style="edgeStyle=orthogonalEdgeStyle;rounded=0;orthogonalLoop=1;jettySize=auto;html=1;exitX=0.25;exitY=1;exitDx=0;exitDy=0;entryX=0;entryY=0.5;entryDx=0;entryDy=0;" edge="1" parent="1" source="GoMAQmLYidIc4yrxQR3_-30" target="GoMAQmLYidIc4yrxQR3_-11">
          <mxGeometry relative="1" as="geometry" />
        </mxCell>
        <mxCell id="GoMAQmLYidIc4yrxQR3_-30" value="bt_for_each" style="rounded=1;whiteSpace=wrap;html=1;fontFamily=Lucida Console;" vertex="1" parent="1">
          <mxGeometry x="220" y="210" width="120" height="30" as="geometry" />
        </mxCell>
        <mxCell id="Y0ZZgDsFgHfN6p4yHDMu-1" style="edgeStyle=orthogonalEdgeStyle;rounded=0;orthogonalLoop=1;jettySize=auto;html=1;exitX=0.25;exitY=1;exitDx=0;exitDy=0;entryX=0;entryY=0.5;entryDx=0;entryDy=0;" edge="1" parent="1" source="Y0ZZgDsFgHfN6p4yHDMu-3" target="Y0ZZgDsFgHfN6p4yHDMu-5">
          <mxGeometry relative="1" as="geometry" />
        </mxCell>
        <mxCell id="Y0ZZgDsFgHfN6p4yHDMu-9" style="edgeStyle=orthogonalEdgeStyle;rounded=0;orthogonalLoop=1;jettySize=auto;html=1;exitX=0.25;exitY=1;exitDx=0;exitDy=0;entryX=0;entryY=0.5;entryDx=0;entryDy=0;" edge="1" parent="1" source="Y0ZZgDsFgHfN6p4yHDMu-3" target="Y0ZZgDsFgHfN6p4yHDMu-8">
          <mxGeometry relative="1" as="geometry" />
        </mxCell>
        <mxCell id="Y0ZZgDsFgHfN6p4yHDMu-3" value="&lt;font face=&quot;Helvetica&quot;&gt;&lt;span style=&quot;text-wrap: nowrap;&quot;&gt;blk_queue_enter&lt;/span&gt;&lt;/font&gt;" style="rounded=1;whiteSpace=wrap;html=1;fontFamily=Lucida Console;" vertex="1" parent="1">
          <mxGeometry y="600" width="130" height="30" as="geometry" />
        </mxCell>
        <mxCell id="Y0ZZgDsFgHfN6p4yHDMu-4" style="edgeStyle=orthogonalEdgeStyle;rounded=0;orthogonalLoop=1;jettySize=auto;html=1;exitX=0.25;exitY=1;exitDx=0;exitDy=0;entryX=0;entryY=0.5;entryDx=0;entryDy=0;" edge="1" parent="1" source="Y0ZZgDsFgHfN6p4yHDMu-3" target="Y0ZZgDsFgHfN6p4yHDMu-7">
          <mxGeometry relative="1" as="geometry" />
        </mxCell>
        <mxCell id="Y0ZZgDsFgHfN6p4yHDMu-5" value="percpu_ref_tryget_live(&amp;amp;q-&amp;gt;q_usage_counter)" style="rounded=1;whiteSpace=wrap;html=1;fontFamily=Lucida Console;" vertex="1" parent="1">
          <mxGeometry x="60" y="700" width="330" height="30" as="geometry" />
        </mxCell>
        <mxCell id="Y0ZZgDsFgHfN6p4yHDMu-7" value="rcu_read_unlock" style="rounded=1;whiteSpace=wrap;html=1;fontFamily=Lucida Console;" vertex="1" parent="1">
          <mxGeometry x="60" y="750" width="160" height="30" as="geometry" />
        </mxCell>
        <mxCell id="Y0ZZgDsFgHfN6p4yHDMu-8" value="rcu_read_lock" style="rounded=1;whiteSpace=wrap;html=1;fontFamily=Lucida Console;" vertex="1" parent="1">
          <mxGeometry x="60" y="650" width="120" height="30" as="geometry" />
        </mxCell>
        <mxCell id="Y0ZZgDsFgHfN6p4yHDMu-10" style="edgeStyle=orthogonalEdgeStyle;rounded=0;orthogonalLoop=1;jettySize=auto;html=1;exitX=0.25;exitY=1;exitDx=0;exitDy=0;entryX=0;entryY=0.5;entryDx=0;entryDy=0;" edge="1" parent="1" source="Y0ZZgDsFgHfN6p4yHDMu-11" target="Y0ZZgDsFgHfN6p4yHDMu-12">
          <mxGeometry relative="1" as="geometry" />
        </mxCell>
        <mxCell id="Y0ZZgDsFgHfN6p4yHDMu-11" value="&lt;font face=&quot;Helvetica&quot;&gt;&lt;span style=&quot;text-wrap: nowrap;&quot;&gt;blk_queue_exit&lt;/span&gt;&lt;/font&gt;" style="rounded=1;whiteSpace=wrap;html=1;fontFamily=Lucida Console;" vertex="1" parent="1">
          <mxGeometry y="820" width="130" height="30" as="geometry" />
        </mxCell>
        <mxCell id="Y0ZZgDsFgHfN6p4yHDMu-12" value="percpu_ref_put(&amp;amp;q-&amp;gt;q_usage_counter)" style="rounded=1;whiteSpace=wrap;html=1;fontFamily=Lucida Console;" vertex="1" parent="1">
          <mxGeometry x="60" y="870" width="270" height="30" as="geometry" />
        </mxCell>
      </root>
    </mxGraphModel>
  </diagram>
  <diagram id="z_Xy51E5BsS2tVfd8GCs" name="nvme ns">
    <mxGraphModel dx="1024" dy="1015" grid="1" gridSize="10" guides="1" tooltips="1" connect="1" arrows="1" fold="1" page="1" pageScale="1" pageWidth="827" pageHeight="1169" math="0" shadow="0">
      <root>
        <mxCell id="0" />
        <mxCell id="1" parent="0" />
        <mxCell id="O3JikK_9wceYjy-WIf_F-1" style="edgeStyle=orthogonalEdgeStyle;rounded=0;orthogonalLoop=1;jettySize=auto;html=1;exitX=0.25;exitY=1;exitDx=0;exitDy=0;entryX=0;entryY=0.5;entryDx=0;entryDy=0;" parent="1" source="O3JikK_9wceYjy-WIf_F-3" target="O3JikK_9wceYjy-WIf_F-5" edge="1">
          <mxGeometry relative="1" as="geometry" />
        </mxCell>
        <mxCell id="O3JikK_9wceYjy-WIf_F-2" style="edgeStyle=orthogonalEdgeStyle;rounded=0;orthogonalLoop=1;jettySize=auto;html=1;exitX=0.25;exitY=1;exitDx=0;exitDy=0;entryX=0;entryY=0.5;entryDx=0;entryDy=0;" parent="1" source="O3JikK_9wceYjy-WIf_F-3" target="O3JikK_9wceYjy-WIf_F-6" edge="1">
          <mxGeometry relative="1" as="geometry" />
        </mxCell>
        <mxCell id="O3JikK_9wceYjy-WIf_F-3" value="&lt;span style=&quot;font-family: Helvetica; text-wrap: nowrap;&quot;&gt;nvme_alloc_ns&lt;/span&gt;" style="rounded=1;whiteSpace=wrap;html=1;fontFamily=Lucida Console;" parent="1" vertex="1">
          <mxGeometry y="40" width="130" height="30" as="geometry" />
        </mxCell>
        <mxCell id="O3JikK_9wceYjy-WIf_F-4" style="edgeStyle=orthogonalEdgeStyle;rounded=0;orthogonalLoop=1;jettySize=auto;html=1;exitX=0.25;exitY=1;exitDx=0;exitDy=0;entryX=0;entryY=0.5;entryDx=0;entryDy=0;" parent="1" source="O3JikK_9wceYjy-WIf_F-3" target="O3JikK_9wceYjy-WIf_F-7" edge="1">
          <mxGeometry relative="1" as="geometry" />
        </mxCell>
        <mxCell id="O3JikK_9wceYjy-WIf_F-5" value="blk_mq_init_queue" style="rounded=1;whiteSpace=wrap;html=1;fontFamily=Lucida Console;" parent="1" vertex="1">
          <mxGeometry x="60" y="90" width="150" height="30" as="geometry" />
        </mxCell>
        <mxCell id="O3JikK_9wceYjy-WIf_F-6" value="alloc_disk_node" style="rounded=1;whiteSpace=wrap;html=1;fontFamily=Lucida Console;" parent="1" vertex="1">
          <mxGeometry x="60" y="330" width="150" height="30" as="geometry" />
        </mxCell>
        <mxCell id="O3JikK_9wceYjy-WIf_F-9" style="edgeStyle=orthogonalEdgeStyle;rounded=0;orthogonalLoop=1;jettySize=auto;html=1;exitX=0.25;exitY=1;exitDx=0;exitDy=0;entryX=0;entryY=0.5;entryDx=0;entryDy=0;" parent="1" source="O3JikK_9wceYjy-WIf_F-7" target="O3JikK_9wceYjy-WIf_F-8" edge="1">
          <mxGeometry relative="1" as="geometry" />
        </mxCell>
        <mxCell id="O3JikK_9wceYjy-WIf_F-7" value="device_add_disk" style="rounded=1;whiteSpace=wrap;html=1;fontFamily=Lucida Console;" parent="1" vertex="1">
          <mxGeometry x="60" y="390" width="160" height="30" as="geometry" />
        </mxCell>
        <mxCell id="O3JikK_9wceYjy-WIf_F-8" value="register_disk" style="rounded=1;whiteSpace=wrap;html=1;fontFamily=Lucida Console;" parent="1" vertex="1">
          <mxGeometry x="130" y="440" width="140" height="30" as="geometry" />
        </mxCell>
        <mxCell id="O3JikK_9wceYjy-WIf_F-12" style="edgeStyle=orthogonalEdgeStyle;rounded=0;orthogonalLoop=1;jettySize=auto;html=1;exitX=0.25;exitY=1;exitDx=0;exitDy=0;entryX=0;entryY=0.5;entryDx=0;entryDy=0;" parent="1" source="O3JikK_9wceYjy-WIf_F-10" target="O3JikK_9wceYjy-WIf_F-11" edge="1">
          <mxGeometry relative="1" as="geometry" />
        </mxCell>
        <mxCell id="O3JikK_9wceYjy-WIf_F-14" style="edgeStyle=orthogonalEdgeStyle;rounded=0;orthogonalLoop=1;jettySize=auto;html=1;exitX=0.25;exitY=1;exitDx=0;exitDy=0;entryX=0;entryY=0.5;entryDx=0;entryDy=0;" parent="1" source="O3JikK_9wceYjy-WIf_F-10" target="O3JikK_9wceYjy-WIf_F-13" edge="1">
          <mxGeometry relative="1" as="geometry" />
        </mxCell>
        <mxCell id="O3JikK_9wceYjy-WIf_F-10" value="blk_release_queue" style="rounded=1;whiteSpace=wrap;html=1;fontFamily=Lucida Console;" parent="1" vertex="1">
          <mxGeometry y="700" width="140" height="30" as="geometry" />
        </mxCell>
        <mxCell id="O3JikK_9wceYjy-WIf_F-11" value="blk_exit_queue" style="rounded=1;whiteSpace=wrap;html=1;fontFamily=Lucida Console;" parent="1" vertex="1">
          <mxGeometry x="60" y="750" width="120" height="30" as="geometry" />
        </mxCell>
        <mxCell id="O3JikK_9wceYjy-WIf_F-13" value="call_rcu(&amp;amp;q-&amp;gt;rcu_head, blk_free_queue_rcu)" style="rounded=1;whiteSpace=wrap;html=1;fontFamily=Lucida Console;" parent="1" vertex="1">
          <mxGeometry x="60" y="800" width="320" height="30" as="geometry" />
        </mxCell>
        <mxCell id="O3JikK_9wceYjy-WIf_F-15" style="edgeStyle=orthogonalEdgeStyle;rounded=0;orthogonalLoop=1;jettySize=auto;html=1;exitX=0.25;exitY=1;exitDx=0;exitDy=0;entryX=0;entryY=0.5;entryDx=0;entryDy=0;" parent="1" source="O3JikK_9wceYjy-WIf_F-16" target="O3JikK_9wceYjy-WIf_F-17" edge="1">
          <mxGeometry relative="1" as="geometry" />
        </mxCell>
        <mxCell id="O3JikK_9wceYjy-WIf_F-16" value="blk_put_queue" style="rounded=1;whiteSpace=wrap;html=1;fontFamily=Lucida Console;" parent="1" vertex="1">
          <mxGeometry y="570" width="140" height="30" as="geometry" />
        </mxCell>
        <mxCell id="O3JikK_9wceYjy-WIf_F-17" value="kobject_put" style="rounded=1;whiteSpace=wrap;html=1;fontFamily=Lucida Console;" parent="1" vertex="1">
          <mxGeometry x="60" y="620" width="110" height="30" as="geometry" />
        </mxCell>
        <mxCell id="O3JikK_9wceYjy-WIf_F-18" style="edgeStyle=orthogonalEdgeStyle;rounded=0;orthogonalLoop=1;jettySize=auto;html=1;exitX=0.25;exitY=1;exitDx=0;exitDy=0;entryX=0;entryY=0.5;entryDx=0;entryDy=0;" parent="1" source="O3JikK_9wceYjy-WIf_F-5" target="O3JikK_9wceYjy-WIf_F-20" edge="1">
          <mxGeometry relative="1" as="geometry" />
        </mxCell>
        <mxCell id="O3JikK_9wceYjy-WIf_F-22" style="edgeStyle=orthogonalEdgeStyle;rounded=0;orthogonalLoop=1;jettySize=auto;html=1;exitX=0.25;exitY=1;exitDx=0;exitDy=0;entryX=0;entryY=0.5;entryDx=0;entryDy=0;" parent="1" source="O3JikK_9wceYjy-WIf_F-20" target="O3JikK_9wceYjy-WIf_F-21" edge="1">
          <mxGeometry relative="1" as="geometry" />
        </mxCell>
        <mxCell id="O3JikK_9wceYjy-WIf_F-24" style="edgeStyle=orthogonalEdgeStyle;rounded=0;orthogonalLoop=1;jettySize=auto;html=1;exitX=0.25;exitY=1;exitDx=0;exitDy=0;entryX=0;entryY=0.5;entryDx=0;entryDy=0;" parent="1" source="O3JikK_9wceYjy-WIf_F-20" target="O3JikK_9wceYjy-WIf_F-23" edge="1">
          <mxGeometry relative="1" as="geometry" />
        </mxCell>
        <mxCell id="O3JikK_9wceYjy-WIf_F-26" style="edgeStyle=orthogonalEdgeStyle;rounded=0;orthogonalLoop=1;jettySize=auto;html=1;exitX=0.25;exitY=1;exitDx=0;exitDy=0;entryX=0;entryY=0.5;entryDx=0;entryDy=0;" parent="1" source="O3JikK_9wceYjy-WIf_F-21" target="O3JikK_9wceYjy-WIf_F-25" edge="1">
          <mxGeometry relative="1" as="geometry" />
        </mxCell>
        <mxCell id="O3JikK_9wceYjy-WIf_F-20" value="blk_mq_init_queue_data" style="rounded=1;whiteSpace=wrap;html=1;fontFamily=Lucida Console;" parent="1" vertex="1">
          <mxGeometry x="200" y="140" width="170" height="30" as="geometry" />
        </mxCell>
        <mxCell id="O3JikK_9wceYjy-WIf_F-21" value="blk_alloc_queue" style="rounded=1;whiteSpace=wrap;html=1;fontFamily=Lucida Console;" parent="1" vertex="1">
          <mxGeometry x="270" y="190" width="150" height="30" as="geometry" />
        </mxCell>
        <mxCell id="O3JikK_9wceYjy-WIf_F-23" value="blk_mq_init_allocated_queue" style="rounded=1;whiteSpace=wrap;html=1;fontFamily=Lucida Console;" parent="1" vertex="1">
          <mxGeometry x="270" y="290" width="210" height="30" as="geometry" />
        </mxCell>
        <mxCell id="O3JikK_9wceYjy-WIf_F-25" value="kobject_init(&amp;amp;q-&amp;gt;kobj, &amp;amp;blk_queue_ktype)" style="rounded=1;whiteSpace=wrap;html=1;fontFamily=Lucida Console;" parent="1" vertex="1">
          <mxGeometry x="340" y="240" width="300" height="30" as="geometry" />
        </mxCell>
        <mxCell id="feXFzlv0EnpRHllGqnKq-1" style="edgeStyle=orthogonalEdgeStyle;rounded=0;orthogonalLoop=1;jettySize=auto;html=1;exitX=0.25;exitY=1;exitDx=0;exitDy=0;entryX=0;entryY=0.5;entryDx=0;entryDy=0;" parent="1" source="feXFzlv0EnpRHllGqnKq-2" target="feXFzlv0EnpRHllGqnKq-3" edge="1">
          <mxGeometry relative="1" as="geometry" />
        </mxCell>
        <mxCell id="feXFzlv0EnpRHllGqnKq-5" style="edgeStyle=orthogonalEdgeStyle;rounded=0;orthogonalLoop=1;jettySize=auto;html=1;exitX=0.25;exitY=1;exitDx=0;exitDy=0;entryX=0;entryY=0.5;entryDx=0;entryDy=0;" parent="1" source="feXFzlv0EnpRHllGqnKq-2" target="feXFzlv0EnpRHllGqnKq-4" edge="1">
          <mxGeometry relative="1" as="geometry" />
        </mxCell>
        <mxCell id="feXFzlv0EnpRHllGqnKq-2" value="nvme_ns_remove" style="rounded=1;whiteSpace=wrap;html=1;fontFamily=Lucida Console;" parent="1" vertex="1">
          <mxGeometry x="680" width="140" height="30" as="geometry" />
        </mxCell>
        <mxCell id="feXFzlv0EnpRHllGqnKq-3" value="del_gendisk" style="rounded=1;whiteSpace=wrap;html=1;fontFamily=Lucida Console;" parent="1" vertex="1">
          <mxGeometry x="740" y="50" width="110" height="30" as="geometry" />
        </mxCell>
        <mxCell id="feXFzlv0EnpRHllGqnKq-4" value="blk_cleanup_queue" style="rounded=1;whiteSpace=wrap;html=1;fontFamily=Lucida Console;" parent="1" vertex="1">
          <mxGeometry x="740" y="100" width="140" height="30" as="geometry" />
        </mxCell>
      </root>
    </mxGraphModel>
  </diagram>
  <diagram id="ery1WYu0mf2TspVZOD0f" name="nvme dma">
    <mxGraphModel dx="1855" dy="1027" grid="1" gridSize="10" guides="1" tooltips="1" connect="1" arrows="1" fold="1" page="1" pageScale="1" pageWidth="827" pageHeight="1169" math="0" shadow="0">
      <root>
        <mxCell id="0" />
        <mxCell id="1" parent="0" />
        <mxCell id="y_kz9mppqmHKI7YJSck4-1" style="edgeStyle=orthogonalEdgeStyle;rounded=1;orthogonalLoop=1;jettySize=auto;html=1;exitX=0.25;exitY=1;exitDx=0;exitDy=0;entryX=0;entryY=0.5;entryDx=0;entryDy=0;curved=0;" edge="1" parent="1" source="y_kz9mppqmHKI7YJSck4-2" target="y_kz9mppqmHKI7YJSck4-3">
          <mxGeometry relative="1" as="geometry" />
        </mxCell>
        <mxCell id="y_kz9mppqmHKI7YJSck4-2" value="&lt;span style=&quot;font-family: Helvetica; text-wrap: nowrap;&quot;&gt;nvme_map_data&lt;/span&gt;" style="rounded=1;whiteSpace=wrap;html=1;fontFamily=Lucida Console;" vertex="1" parent="1">
          <mxGeometry x="30" y="40" width="130" height="30" as="geometry" />
        </mxCell>
        <mxCell id="y_kz9mppqmHKI7YJSck4-3" value="blk_rq_map_sg" style="rounded=1;whiteSpace=wrap;html=1;fontFamily=Lucida Console;" vertex="1" parent="1">
          <mxGeometry x="90" y="90" width="150" height="30" as="geometry" />
        </mxCell>
        <mxCell id="y_kz9mppqmHKI7YJSck4-4" value="将块请求中的数据映射到聚合离散列表中" style="text;html=1;align=center;verticalAlign=middle;resizable=0;points=[];autosize=1;strokeColor=none;fillColor=none;fontFamily=Helvetica;fontSize=11;fontColor=default;labelBackgroundColor=default;" vertex="1" parent="1">
          <mxGeometry x="240" y="90" width="220" height="30" as="geometry" />
        </mxCell>
        <mxCell id="y_kz9mppqmHKI7YJSck4-7" style="edgeStyle=orthogonalEdgeStyle;shape=connector;curved=0;rounded=1;orthogonalLoop=1;jettySize=auto;html=1;exitX=0.25;exitY=1;exitDx=0;exitDy=0;entryX=0;entryY=0.5;entryDx=0;entryDy=0;strokeColor=default;align=center;verticalAlign=middle;fontFamily=Helvetica;fontSize=11;fontColor=default;labelBackgroundColor=default;endArrow=classic;" edge="1" parent="1" source="y_kz9mppqmHKI7YJSck4-5" target="y_kz9mppqmHKI7YJSck4-6">
          <mxGeometry relative="1" as="geometry" />
        </mxCell>
        <mxCell id="y_kz9mppqmHKI7YJSck4-24" value="不足PAGE_SIZE" style="edgeLabel;html=1;align=center;verticalAlign=middle;resizable=0;points=[];fontFamily=Helvetica;fontSize=11;fontColor=default;labelBackgroundColor=default;" vertex="1" connectable="0" parent="y_kz9mppqmHKI7YJSck4-7">
          <mxGeometry x="0.0336" y="4" relative="1" as="geometry">
            <mxPoint as="offset" />
          </mxGeometry>
        </mxCell>
        <mxCell id="y_kz9mppqmHKI7YJSck4-10" style="edgeStyle=orthogonalEdgeStyle;shape=connector;curved=0;rounded=1;orthogonalLoop=1;jettySize=auto;html=1;exitX=0.25;exitY=1;exitDx=0;exitDy=0;strokeColor=default;align=center;verticalAlign=middle;fontFamily=Helvetica;fontSize=11;fontColor=default;labelBackgroundColor=default;endArrow=classic;entryX=0;entryY=0.5;entryDx=0;entryDy=0;" edge="1" parent="1" source="y_kz9mppqmHKI7YJSck4-5" target="y_kz9mppqmHKI7YJSck4-9">
          <mxGeometry relative="1" as="geometry" />
        </mxCell>
        <mxCell id="y_kz9mppqmHKI7YJSck4-25" value="超过PAGE_SIZE" style="edgeLabel;html=1;align=center;verticalAlign=middle;resizable=0;points=[];fontFamily=Helvetica;fontSize=11;fontColor=default;labelBackgroundColor=default;" vertex="1" connectable="0" parent="y_kz9mppqmHKI7YJSck4-10">
          <mxGeometry x="-0.012" relative="1" as="geometry">
            <mxPoint x="-1" as="offset" />
          </mxGeometry>
        </mxCell>
        <mxCell id="y_kz9mppqmHKI7YJSck4-5" value="__blk_rq_map_sg" style="rounded=1;whiteSpace=wrap;html=1;fontFamily=Lucida Console;" vertex="1" parent="1">
          <mxGeometry x="120" y="140" width="150" height="30" as="geometry" />
        </mxCell>
        <mxCell id="y_kz9mppqmHKI7YJSck4-23" style="edgeStyle=orthogonalEdgeStyle;shape=connector;curved=0;rounded=1;orthogonalLoop=1;jettySize=auto;html=1;exitX=0.25;exitY=1;exitDx=0;exitDy=0;entryX=0;entryY=0.5;entryDx=0;entryDy=0;strokeColor=default;align=center;verticalAlign=middle;fontFamily=Helvetica;fontSize=11;fontColor=default;labelBackgroundColor=default;endArrow=classic;" edge="1" parent="1" source="y_kz9mppqmHKI7YJSck4-6" target="y_kz9mppqmHKI7YJSck4-22">
          <mxGeometry relative="1" as="geometry" />
        </mxCell>
        <mxCell id="y_kz9mppqmHKI7YJSck4-6" value="__blk_bvec_map_sg" style="rounded=1;whiteSpace=wrap;html=1;fontFamily=Lucida Console;" vertex="1" parent="1">
          <mxGeometry x="-90" y="240" width="150" height="30" as="geometry" />
        </mxCell>
        <mxCell id="y_kz9mppqmHKI7YJSck4-15" style="edgeStyle=orthogonalEdgeStyle;shape=connector;curved=0;rounded=1;orthogonalLoop=1;jettySize=auto;html=1;exitX=0.25;exitY=1;exitDx=0;exitDy=0;entryX=0;entryY=0.5;entryDx=0;entryDy=0;strokeColor=default;align=center;verticalAlign=middle;fontFamily=Helvetica;fontSize=11;fontColor=default;labelBackgroundColor=default;endArrow=classic;" edge="1" parent="1" source="y_kz9mppqmHKI7YJSck4-9" target="y_kz9mppqmHKI7YJSck4-11">
          <mxGeometry relative="1" as="geometry" />
        </mxCell>
        <mxCell id="y_kz9mppqmHKI7YJSck4-9" value="__blk_bios_map_sg" style="rounded=1;whiteSpace=wrap;html=1;fontFamily=Lucida Console;" vertex="1" parent="1">
          <mxGeometry x="290" y="230" width="150" height="30" as="geometry" />
        </mxCell>
        <mxCell id="y_kz9mppqmHKI7YJSck4-17" style="edgeStyle=orthogonalEdgeStyle;shape=connector;curved=0;rounded=1;orthogonalLoop=1;jettySize=auto;html=1;exitX=0.25;exitY=1;exitDx=0;exitDy=0;entryX=0;entryY=0.5;entryDx=0;entryDy=0;strokeColor=default;align=center;verticalAlign=middle;fontFamily=Helvetica;fontSize=11;fontColor=default;labelBackgroundColor=default;endArrow=classic;" edge="1" parent="1" source="y_kz9mppqmHKI7YJSck4-11" target="y_kz9mppqmHKI7YJSck4-12">
          <mxGeometry relative="1" as="geometry" />
        </mxCell>
        <mxCell id="y_kz9mppqmHKI7YJSck4-11" value="for_each_bio" style="rounded=1;whiteSpace=wrap;html=1;fontFamily=Lucida Console;" vertex="1" parent="1">
          <mxGeometry x="350" y="280" width="150" height="30" as="geometry" />
        </mxCell>
        <mxCell id="y_kz9mppqmHKI7YJSck4-19" style="edgeStyle=orthogonalEdgeStyle;shape=connector;curved=0;rounded=1;orthogonalLoop=1;jettySize=auto;html=1;exitX=0.25;exitY=1;exitDx=0;exitDy=0;entryX=0;entryY=0.5;entryDx=0;entryDy=0;strokeColor=default;align=center;verticalAlign=middle;fontFamily=Helvetica;fontSize=11;fontColor=default;labelBackgroundColor=default;endArrow=classic;" edge="1" parent="1" source="y_kz9mppqmHKI7YJSck4-12" target="y_kz9mppqmHKI7YJSck4-18">
          <mxGeometry relative="1" as="geometry" />
        </mxCell>
        <mxCell id="y_kz9mppqmHKI7YJSck4-12" value="bio_for_each_bvec" style="rounded=1;whiteSpace=wrap;html=1;fontFamily=Lucida Console;" vertex="1" parent="1">
          <mxGeometry x="410" y="330" width="150" height="30" as="geometry" />
        </mxCell>
        <mxCell id="y_kz9mppqmHKI7YJSck4-13" value="遍历所有bio" style="text;html=1;align=center;verticalAlign=middle;resizable=0;points=[];autosize=1;strokeColor=none;fillColor=none;fontFamily=Helvetica;fontSize=11;fontColor=default;labelBackgroundColor=default;" vertex="1" parent="1">
          <mxGeometry x="500" y="278" width="80" height="30" as="geometry" />
        </mxCell>
        <mxCell id="y_kz9mppqmHKI7YJSck4-14" value="遍历所有bvec" style="text;html=1;align=center;verticalAlign=middle;resizable=0;points=[];autosize=1;strokeColor=none;fillColor=none;fontFamily=Helvetica;fontSize=11;fontColor=default;labelBackgroundColor=default;" vertex="1" parent="1">
          <mxGeometry x="560" y="330" width="90" height="30" as="geometry" />
        </mxCell>
        <mxCell id="y_kz9mppqmHKI7YJSck4-18" value="blk_bvec_map_sg" style="rounded=1;whiteSpace=wrap;html=1;fontFamily=Lucida Console;" vertex="1" parent="1">
          <mxGeometry x="470" y="380" width="150" height="30" as="geometry" />
        </mxCell>
        <mxCell id="y_kz9mppqmHKI7YJSck4-22" value="sg_set_page" style="rounded=1;whiteSpace=wrap;html=1;fontFamily=Lucida Console;" vertex="1" parent="1">
          <mxGeometry x="-20" y="290" width="120" height="30" as="geometry" />
        </mxCell>
      </root>
    </mxGraphModel>
  </diagram>
  <diagram id="8t5nN_3kOad-5LUAaES_" name="nvme dif">
    <mxGraphModel dx="905" dy="1015" grid="1" gridSize="10" guides="1" tooltips="1" connect="1" arrows="1" fold="1" page="1" pageScale="1" pageWidth="827" pageHeight="1169" math="0" shadow="0">
      <root>
        <mxCell id="0" />
        <mxCell id="1" parent="0" />
        <mxCell id="mgSLJoRUOdjEDRv_r9Cd-4" value="" style="shape=image;imageAspect=0;aspect=fixed;verticalLabelPosition=bottom;verticalAlign=top;image=data:image/png,iVBORw0KGgoAAAANSUhEUgAABMoAAAC5CAYAAADZCtNFAAAAAXNSR0IArs4c6QAAAARnQU1BAACxjwv8YQUAAAAJcEhZcwAAGdYAABnWARjRyu0AAGE+SURBVHhe7d19cBR1vi/+9xoSJ0AACZrs5oZJpHwYisJR8R5WwVDkHhdQEqRQNrt7K7LIFrEscufsehVLp1KRkuVaazaUZTxGxKljmcK1lIQVWM6GSlZ3l3N114GiiA8/TIbc7M4oIw8BJhAjvz+6e6a7p3ump7snM5O8X1VdlfTDdPe3v/306e/D91wu11UkEIlE1KOIiIiIiIiIiIgmnGvUI4iIiIiIiIiIiCYjBsqIiIiIiIiIiIgYKCMiIiIiIiIiIhIwUEZERERERERERMRAGRERERERERERkYCBMiIiIiIiIiIiIgbKiIiIiIiIiIiIBAyUERERERERERERMVBGREREREREREQkYKCMiIiIiIiIiIiIgTIiIiIiIiIiIiIBA2VEREREREREREQMlBEREREREREREQkYKCMiIiIiIiIiImKgjIiIiIxbgIea+vF6Wz+2P7hAPZGIiHJF+QLc8+Br2N50GK+3HcZD5eoZiChmvJ9/1mFLWz9ebzqM7Q1bcU/5eKyT5GwPlM198DBeb+vH601bMVc9UW7xa8J8ba/hHvU0W4mZzECmvqdBmC+27bETIun+iKL7H92v2Ppfb1innj1ObPnk20tElC2i108D1znKYYv/F1aWCH+W3Lba0H1xcjP+DDIxTfb9J2tkz9DqwdBzudXlJ6jydXio4TBef3ofNt5XjZKSSvUcRCkx/P6fyzL1/FNSiZKFv8DGp/fh9abD2LI4g/fSNMVvsjX/2BsoK9+KhvsqAfTjwK7tOKWeLjd0EiH1uDQruW9nil9LjuO/jvYLf5b8K/4l6bIL8C+3iTebYwfxZ/XkhSuSZCrZ8kQTUZousJPGZE+/yb7/VtmRfkd+iwPizTt0dF/i+zxNLHbkH8ocHj+C8K62/ekXsHKh8L4RCnXjgG81mhqW43eD6pkpa2Tz+ZvK+79Z2bD/4/788w52NlSi6fkncOBYvxA3KamEu34ftjesy0xAKR3xm/HIPybZGChbgIc2/gIlAEKHtsRfbMu3YnvbYWxRf1EMnYQw6wLh60ZaSyNUYuUDqf3+qY//U8wQlbhjUZIIbvlq3CFGmv2fvKOeCqAady5Wj5ORLU9ERJR9juN3TZX4eUMltr53XD2RiMhGwoviz2XDrmPqeRKxuvwEs/g1bH9aeFdDqBu7nq/E1qZH8bsjx7Pq5ZRySZL3/wklM88/pwbfwe/almNrw2rsOiYU4ClZ+AKaxqP0VdrjN9mdf+wLlEnFEUOvoi0u80iJUAn3ffvwetNruAdf4J/i1PLFr2F72z7h68bCx1Is9ZWiVH9/MLadyYpZzl30r8LNB9342xH1VIH7dv2MFFueiIiIiIjIBuVbsb2+WgySvYqmpkfx5yx7KaUclPD9n+x1HH9uW46mQ1Jtt1+gyXSAyohxiN9kef6xKVC2DlvqqxMUmTuO3zWtxq5D3WKxwWpsfPoFuCEc5I3ihTsU6sau59Nd9DfVUmXv4G/S16eSeUiUB8pLE1S7lOhWv2S1SyIiIiIislOs1AbQjV1NWu9qRKlK9v5P6XDqPVmwbOEL2JKotpol6Y7fZH/+sSVQdk+DmGjHXk6QSMfx5/ceFYoNSgdXIiv+m86vG/5j3cIfmlHPBfiBTnGuP38iLpew6uQ63LlQ+Eu72qVE5zdY7ZKIiIiIiOwka4Tc73tU/2M+UQqMvf9TOpx6b0u0vTT3inRWwUxf/CYn8o/L5bqaaKioqEg8/PiPVw8fuHr18IE/Xv2pepp6WPqrq0/s+FKcXzW88cerT/z4gfhlLA+/uvqiuI4Xf/zA1SfeENe341eq+WTT3vj3q/fq/Eb8cuKgmw7Ssn+8+uIO/d+41yOmyxtfXu0Q19Xh0UkPMR2l+Q4fuHq1I23pV6HY/9g2PXD1p54/Xu2Q0kzchp8uVS+rHO798b9ffVG2j7Hj/+XVjh1/vPrEj+OXsXMwt36t/dcYonngy6tPKNJBa/kHrt77Y2X6HX7jj6rl7FpeNmjkHWHff3X13oTLxs6PRHng8IGrVzvizh/ZoHueGBvMHT8rQ+z8Fbb3Adk17MurL0bX98DVn8rGJ9wOjWNg+Py1mH56x0w+xPZJa3ggegzUy0UHjeubbevP+P5bHexYv85vRM+BBPnIVPrJ7n+qIeH1UGvQyPvJrz/a1z91GmTv/Ud7+41cv6PPBQaPV+w5IsE12MpgMf9YPX4VFdp5yPD105YhftuVeSjBdmhs+3jmf3PHr8K++7+p/Y8ffio9SydaV4LB0vIa+5A8/9mUfqaHRO83qQxW7/9m0s/G/G9q/cL67Dl+2svIh4T3f9Pnr2wwtf86Q4rbY/n+m+L6YoOV42f1+Uc7/xq5/xsaommSJO9YHdIRvzF9PMd3+J7L5bqqDp7JRSIR9SiZddjSJkQD/b5K7NRplwtYgHsadmKj2MMKAISOdeOfC6vhDnXDH7oRbmlaqB8Hdpkpvqcnto2hQ6ux9Z//C69LxfwUxQQX4KGmfdF6sk2qYsn3NPRj40IIRZYb4r/GRKcfewI/b5OXKJPW341dPmBjwnX344DvP3FHvdSo3eq4xgLnPngYTffpV9HUWsY6VRp+vDrWGGgc9b7FxNJQX3q2X2B+/ar9j5suWvyaTt5Sp9+t2LLxBbi1E1DjXLK6vCBZ3gH64fdtwc4jWvsXOz+kPLBl4y90tkF+jsS23Rh12sWYP35WyM7fht/iB9I1IkpnvMY1BAaOQfz225d+KN+a4JjF6OUflK9LmO+i4q6BIlPrz6L9t8qG9c9d/BoapDZm9Cjynh3pp/8b8flVX7K8r3/9UV//cu3+o97+VK7fBu89QPw1OuG8Rukfe21a6a/ef3PHDwbykH37rS318y8m2banJ//bcfwQn7cM3/9jzO9/vOi5rJPWyZhdPtk+6Oc/6+lnSfnWaJ7R38YkrN7/TaeflfyvZG79sOf4mbr/23X+Cszvv5bYtiV6ZpGYu//atf9Wjp/+NsRvrxZ1/k3l/m9E4tiFdemK36SWfzJKXYJMPagja/Ih+vUy2RcExZdOKeovRlnF6O29P/6jGGW2O7KojubqlSpL8sUlYdQ2tg79aX+8+tO4bRHnWfrvwr6/8e9X79WbR/F1+arqC5yqNIuZqHTCQbZNO6TjdPVqx45/j33BWSqLuidJP72vh/cufSB+ObsGS+vXPyba61AfA730k22HlAcOSHnFzuXVeUd23Coqrt679FdXX5R92YjPwxXKLzJ6eUDz64D+1xjtQZ126t82c/ysDLHzVygRKl6/oun95dUXd3wp225p/vj9MHf+2pR+ivzx5dUXPb9SppXs/NU+/vLtEJeXr2fpA7Gv9Fr3A9Prz5b9tzjYsX7ZOaD5BW/pA1fvXfqrqz9VjLcp/RSD1tfZxIO164/e9S9X7j9622/s+m24VJnm9dfqYEf+0dv/FI5fXB4yev20cTB1/glD5vK/HcevwsL9X9xHS/sfP1gqEWZyeWv5z1r6WR1i2663fckGi/d/S+lnJf/bsX5hHkvHz/T9367z1+r+xw+pvP+bv//atf8Wj5/ebxl6/tHLv8bu/0YGw88IJod0xG9Syj8ZHsy3UVa+FQ33VQrRV52vB3Kn3tuCXb7V+LlUj7X8JnwfsQbyTx15FFuffwK7nteIxNvqOH6361WhUbpUGsAbOiksA+D731d1kbp4hRht1u/tUhDrGEDeg6bU22Xo6L4EkeB1WCN9CTj2BLa2vYNT0ajtcfy5TaqrnGpnBakpWSg23HdoNba2bY/VSR58B3ujvXDEd3ow9/s3in914/eKbY85NZi+7qkzvX6JlH5+32rlMRzcjq2+5G3hmVo+eq5KeUd23MRuh3c2rY7Vda9/TafDCYFuHtCk6po9uo3d2KXqsl0YtL9GZP74VcO9UGzbYxDA4D78XTzf3Asr4fdJ2/0p/ildKBTMnr92pJ+8EV/hi9vO995RplXcMnIL8FCT9EVNtrx8mcFEX9WsrD8b9t8qO9YvNXgqfTV8FL9Tl7wYPI5Tg+/gz4rxdqSfRTZef3SvPVl+/5GYuX6feu9l+MXxD6i7Z49agIdWCPkjdOi3Nj5D2Zt/zB4/89dPu5g9/zKd/+09fki0DXps3P/MsS//pZx+Noh2NBb6T/xXyuuzev+Hbemnm3a6+V9iz/qRaBt0Wbn/23X+2rf/QOrv/+bvv3btf0zqx88+Zu7/Rpz655fiX6kva4Tt8ZsU80+mmQyUxU58441CHo9/gFAbfGd8Mu3gdvxeDFgZbgAv+mKsDHIBwD23Sw9QJ/Wvd6JoxwAl/4p/KQcQ7e2yH3//WD995j74WOxG9XutjHUcvzsodVag17OmPfSKm8ZO1kSqcedivYf98ZDp9Qvpp1m94MhB8YUIcN+uf7NKdXkpEJv4oiTLPwYutnp5IP0yePyOPaFdPDj0KvZqjZfJ6Pkra8Q3dGhL0geJOJle3qoJsH5F/snSnoH02H390bv25Mb9J/Xrt+ID233/S/vaEM1jiZ8jskHy43cjfqB6083o9VO9/hTPv+zK//bQ2wYtdu9/Jtid/1JJP+tkHZWFvkgp7wJpuH9ZTD+9tEuU/+1cPxJsgyYb0s8qe/ffzPu/JPP3X6R6/GyW+v3fgEQFeWxhZ/zGSv7JDFOBsrkP7ozWh032gqirbJ5488yMP/9eLFVW8gusMXRTPo7/Oip9sZCCXFDchBKXCBNFT4ZK3LFoQay3y4RfeqRgWrL5JPEPmrYJvYq2pBeY+PUreueo34fXm17DQ4sXGAtS2iDT64869kSCC7ReaSSZlJeX550kgVzZhTrhxdZQHrBX5o+f3gOGkfM+s+dvNJCPbvzexHHL9PJW5f76U80/2cTm64+ha0/8+ZP564co5eu3IPq8olOqLJrHsrnnKBg9fmqp5v/4429NquuXy478bytD2yCxef8zItXjnyT9U0q/zBv/+1eC9DOUdurlbVw/jG5DjPX0s8re/Tfz/p8191+kfvxsZfL+n9TgF/inelw6WYjfmMk/mWYiUCYV4Uz9y5rCkUfFopIZiijGlSq7Fd9PcuRPffyf4sOqGOQCYoEuw19yldUv73lAbGAz4cu2bNtKfoGmtn68rjVIVQNQie+XyRa3UeLtTOQ4fte0GruO9YsBymqsrN8n7It40UyvTK9fEAp+qh6VktSXl+WdpF8TYxfqktJb1ROjdPNAWs/pTB+/L/EPzQcMI+d9Js9f2dfkYwdNHBf51+gkLzqarK7fqgm2/qTncLax9/qje+1JKtPXD0Hq12+R7HklrlRZ+VY8sBAJg/nZwtzxy+T1UyVpHlbLlvxvH91t0Lz/27v/mWFv/kst/TLN6v0ftqafbtolZN/6kWgbNI+fzfd/U+zcf7Pv/9lx/0XKx89epu//2cZ0WpnNP5mVcqDsngap94bMFCG1U8qlyjSqX0aLlRuK1Ati1S9/IfYCYuRleyI4jj+3LcfWhko0+V6FPySV0BMumq+3HcaWtF4wM73+ZGI3NHMXVKvLZ7tsP37ZKPkHgMRSedHRYnX9Vk329VNMtl8/El+/9UqVSR/bUnkGISJKzur9f7KbWPd/a+//2X7/zbTE9/+EpDbDspy1/JM5qQXKFr8W7VI5Y0UX7aQoVbYCEP/Wp65+GSvSqhul1iIrYg4YecCVFck89oRGA4bxg2ZbSlnk1JHt2Nm0HD9vWI0mXzdCIQgNo9fvM97BggWprd9YkdhYg5UmRTuFAP75TxPnl+bysm0vuSlJUWcLF+pxltrxy7QcOH9lececdbgzSdffCVlev0W5sv6k53C2yc7rT1ZePzSv3zKapcpi553/YO58oU1NFl0/k+ZhtezM/+NnIux/FuU/U47jH4aPgVmJ7v+ZTr9Mr98Ao/d/U2zafxvf/7Py/ptpye7/iciqQqa87HixMf+MtxQCZVKvP7lVZC6ZWKkyoVe7ZGINRlbi+w+YbUBX1kOLoQdcWYAuaUOLuea40GOGvNcjox0s2MKm9S9+DU1SrzImydsySNx7qjbt5eXBXa3egGSsXKhTlrgdBONsOn5plY7z12j6GXlRkfXoFsfI8rEvRfGMLJ9o/XrGa/+tsmP96g806ulmGE0/q7L1+iPJnuuH9vVbSV2qLNpI87i39zFe+Qdpun6mwsr5l635f7yOX7bufyoynf+sGwyazb9G7l+J7v/IgvTL5PqNpF+y+7+WVM5fO/Y/Xe//Zu+/qex/bjBy/9cj71U01WXHR7ryz/gwHCiTHshyrchcUoPb0SYLWiUl75lioZixk5YIi3fqveWJo/cqxrqIz2Wyr14ZYWz9mm1nLH4N21O+0SnNffCwWA0XCB36bYr1vhMvH2tbrxobG/R6U1mAh1aYv1AbFu2dRdbOny2MHb9Mse38TTn95F+TtR6S5V2/a0m+/D0NsbwXL/nyidevMu77b5U964/ln0qs3PiayYddM+lnXVZdf3Rl9vqR6PqtoChVti/6cSalEu1WZCD/wM7rp0lWzr+syv8ZOH5Ztf8mZTr/WaXZvrIhye9fie//gkynX+bWnzz9jNz/o0yev1b3P/3v/wbvvyb3P9sZvv9rSqHDlAxJf/5JL2OBsvKtaLivMoO9dqRX7CJiRKwxfom9D6myLxAKsVJoJfftw/aGrbhHcdFdgLnl6/DQg69he9thPBR3Qc6kddjS1o/tDVuFnk7K1Re4BbhHfqGwNT1hw/rlX2RekNWjFx4SXq+vRgn64T8mdW+eyK3KryXl6/BQw+FYabSkxVJNLC8PBi98IT7vlK/DlqZ90S6s09plr7ydv/t2qhrxFPNwXDsFVo9fNrDp/DWRfrFSKJVYuTG23rmLt0aPe+jQq7o9juktL+WbjQsrgdCrOKBTdV1veaPrV8jA/ltlz/rfwU6f1LZlNTa2HY7vNap8AeYuXoeHHlyn/0XWRPpZlvHrTzZdP0xcv1Vi+Ukyjs9lmcg/gH3XT9MsnH8Zz/8ymTh+2bT/pmU6/1mk0b6yUXr3L6P3f0Gm0y9z69dLv9Tu/yLT56+F/bf8/m/j/df0/mcL6/f/OIulmm1GaqdlgOX8k3nfc7lcV9Uj5SKReXhIPJn9PmOln7LLOmxpkxqQW63bNevcB5WZtakpQYZb/Jqsh5B+HHh+eYIoqbT+buwy1EPEgmh6a22vYjt1JdumVBlLw1i6qNcfWz6pZGlvih3rT/Qb4v6WWdv/0LEn0Nb2TorrjtFfXpA87/TD79uCnUe0jm/ifJmS8q3Y/rTYALWWY0/g523y3tuM7T+Q6PiZpXf+SumhPtZ64wXJjwE08o9KyumXaL398B/agp3vIeHx1V8+lu/KG/qFh500rF8hA/tvlV3rn7v4NTTUV+vvOwycAybSTyl2LVBLuO26aSDRu/5MjvtP6NiraGsztu57pHMtWZqkQ8r5x+rxi0meh5BweausnH/Jtz1d+V8l5eMHW+7/5vc/njz/qxl5TzG7fPJ9gE76W08/y2TvLYn2UUui/TZy/5ck+p0YdfrZl//NrR+Wj5/+elO7/wNmz1+B/nbIyfc/tt+p5pkYY/c/QP/aqWBq/60dP6VUn3+M7X+y9zdtsm0xknbjzo78k3lJS5TNfXCncBCOPZGzO2lESqXK5I3xm6h2acWp95bj588/gQNSN7tR/Qgd68YB32o0Nagv8pn2DnY2rMauQ6/Cf6xfbLhRrh+hkLDtP0/LiW7H+t/BTjHdY/oROvaExfQW1r3r+dXYmvJFEiktr5t3QuJ+PL/c0EOqZYPbsVVnO/yHnkDT79U3OTuOX3bQPQapnL8pp5+w3iZft2L+0LFXsev55dj53nFF0Xet6sXR5WU/YDTfwYb1K2Rg/62ya/2njjyKrQ2rseuQ8lgA0nncjQMHE3yRhbn0s4Nu3k/79Sebrx/y67fxdUd7zk65fVQbZCj/IFEeSuX6aYGV809329Oe/1UydPyyZv8t0N2Hccp/lhz5bawdqPoUqw9bvP9LMp1+mVq/Xfd/wNr5m+r+2/P+b/P918L+Zx/j729aoscnS0uT2ZN/Ms9AibKIehQRpcTgFzFdVpcnIqKJIloiRvPrORGRBnlpnFA3djUZqeVihJ0ldogmkvS8v81d/BqapJptfA5Iq6QlyoiIiIgoC5RvxQMLAaAfB3Lq6zkRZdTgdmxVt7VnS3tct+L7YsmW7OqxlGiiEdrGjgbJQq+iiUGytGKgjIiIiCjrLcBDG8USIcdetr2KEBFNcEcexc+j1QArsfLpfmxvei2+cwoAgEbnFBruaZDaYMq+HkuJJoK5YsP/29vEDjQgtGuWfe2STTwMlBERERFlmbmy0h5zFb0DdmMXvyITkRlHHo228wQAJSXVWFm/D00aJcy+f98LaGo7jC0ProvrsVC4Jsl6LDz0W5uqchKRYB22tPWj6ekXsHJhpdiJQT/8PnPtmlHqGCgjIiIiyirrsObpfrzeJgxNT78Ad4nYttDzdrUtREST0uA7+F3bcvz8ealzCnlHVTH/DAFAJdz3vYCmp/dFr0exa5JYusXG9peISCXUj9CxV4VODxqyv+OTiYSBMiIiIqJsJvXq1fQo/swql0Rkh8Hj+PN7j2Jr03L8PK7Hx3fwu6ZKNEm9DKp6LAxJ16TnKxkkI0qLd7CzoRI/b1qOrW3b8TsGyMYde70kIiIiIiIiIiJiiTIiIiIiIiIiIiIBA2VEREREWa0GrZ1++P3i0OmBSz0LEREREdmCgTIiIqKc5YJHHkDx+9HpYQhloqlpbUaVUzbCWY9f8zgTERERpQUDZURERERERERERAyUEREREWW3rkYvegOyEQEfnmrpk40gIiIiIrswUEZERESU1brQWOuG2y0OtS1gmIyIiIgoPRgoIyIiIiIiIiIiYqCMiIiIiIiIiIhIwEAZERERERERERERA2VmjWJ47QAGHhlAcNGoemIO4PYTERGRaP4c1P5yJfa9/xMcO/4TeOarZyAiyla3YOfxx3Ds/Z9g30s/RO38OeoZiIhS9j2Xy3VVPVIuEomoR9G8MAaWDgt/ny9G2btFyFfPk83GffsjCD8SgrhGJTPrH/ftz7RY+jmOl6H041zbW5uPf8pc8HR2oN4ZGxPw1aFW6jHO5ULNis3YuKwKTtk8CATQ27MLr7R0aTSaHf+b6PXC3dglG5Gcy9OJDuWGoa62BX2oQau/GVXRCb3wuhvRBRdqWn+N5qrYMoFeH55qjDXs7appxa+bqxCdI9AL31ONMNRBnl5aAAgEetGz6xW0dBn5oXSJT3frxzIRF2o8K1C9bBkqnM5YmsoEAgFgoAc93QdxsKsvxd+3w3inicBV48HmjfrpohSAr67WQB7MzfTu9boRO/VdqPFYSW/1ua9HuiZYNP8WeB67ExuWzZKNPIvdD7+FlhOyUUQ0OSwOY6B+GEARShqKUaienpVuwc7j1VgmHxU4i572Q9iy97R8LBGRYeNfomxeGAOPDGDgkTAyEoKzY/0nZ6D4vPCn45QjzS/5acDtJwIAuDyt6OzoQHN9fGAITieq6pvR0dmKGpdqGvrQsqtXOapqIzxx8yVSg82KSBvQuytRT3bCC7o8SAYAzqp6dLTWCHN4OtEhD5IJM6C+oxXCHHpcqGnthF8vLQA4nVWob+6AvzPZb2WG+WOpzeVpRae/A8319ajSCdoAgNPphLOqHvXNHfh1ahkg7exOEwCAy4PWTj86mhOnS6omTHr7k6S3vzPF60Qazf8h9r1dHQ2SBQL92P3M21i/YByCZC4POv1++MVBvIRNXkwPyhZDBXCox2W9z7BlwctY/3A3dvecRQAAnLOwbNvD2PfSLciWSy4R5ZbxD5RNCPkoercCFW9U5GDpHmRg+wtR/IawPmkoGVTPk4rx3n6yxu7jb4eb4On0o6NeFVTS4qxC86898Q9aXd1QhsqcqN+cwttNTbWy1EjAh1cSFA+pblWVYJOr2giPunSaQhWqdTdNOwCny1mFZn82BctsOJYqQkk/A7+XtexPE0AorejvqIfRrGJU7qe3EGg2tg9OA4HrcbBmJfa9fbuwvYF+PPvwy1h9/wG07D2dIFhPRBNO+TCCbUGEH1Q1ZRIqwBRAaO6kIYiBBtPFC8ZN34nP0PL4W1i94G0823MWAOBcVo097//Q0D2OiEiOgTIimnSc9c2qoFMAvT4v6txuuOu88AXk0wA46xEfA+vCK+oZq6oNvgC74NmorFwV6DmY4AW1ClXS7IFeeL0+4YtplBP10R0KoNdbB69q26p0ImU1GgG4QK8P3jo33G433O46eHvVCVKF5iwp8mDPsZSLL+kHAIFeL+rq6sQ0EYa6ujrUeb3w+nrR29uLnpPqpTLD/jQBUNOKjub4CoGBQC+88nSpq0Odr1eVPxPJ/fSualYHmoVzUErvuNMn4fnThUbZPkcHr6oEqxXzf4h92yrFINknWH//AXSmuwQZEWWhUQxvDGMEIxi+bwgDTWFEMCVaU+PbxWEE24YQXjgCLDyH4XLV4lnrNDoffwvrdwvBMjhvx56XblHPRESUEANlRDS5BXrhratFo9R2UF8XWmrr4oIJWoGmvpZdqlJlVdhopF5VzWZVIKMXu5I34CS0S1TbiK6uFqhrfkoCvqfQ2NWHrpMD6knxalqhjn30eutQ29iCWFNkfehqrEVdXIKkWtV0HFg4llGueahQjer1ulHb2IW+PuUx6uvrQ19XF7paGtHY2Jjh9tt02JEmqEGrOqNIeaW2EV3ydOnrQ99BA3lPMuHS24c6dy0apfbT+rrQWOtVXSdSCarbbQ48L4glydCPZ+//a4IAPRFNbPkoaipDyaEiobplyTBCT4ttypaEEaofxggAR6gIJc+XoijjtQFS0/cbWbBsWTV2rlHPQUSkj4EyIpq8Aj7U1TbKgkKSPhzsiSsGoqEL3ao3YOeyFUmK+GuUJvO9YqhR7l5vrPHuLwY0ti/gw1NSwO2LgSSleuK3A71eNMYnBgCgr+UpVXDFiWUrEu/puLJ8LEU3VaiqzwUw8IViRO5IJU0q5unm25rW+MblA7463bySkomU3r1esTMONY3SpwmrQ6fRmruwQUzwnmcOoFM9nYgmmXwUvleM0oYylBxStU4WKkLJ8xUobSpGYY4FySR9vzmE3eLld9kmVsEkIuNSDpSNzhtGeG0QwUcGxEbxxWFtEMHqMIbnqZew2ygii8IIrlWtXzaEbd+GCMIa6xl4ZADBRao6/Ybo7EM0Dc38ZiJWtz+2fGz++H0Irg0jMlu1qC2ybPtnRzBcrTwHgmvTcdwSGcXoPFUeWhvGcLLt19h2Id9FMJpsWdiwfDaJ9jCprU9dIksnkND1iqoaZLJqbGZLkyVpwwxJOwNQiduOAHwJV9AHdZI4K25SjsgUm44loBVgTLHtuWyRaproqkF1fJQsFpC1aiKld6N+j5Z9B3viAtcV83RzYZrMgWdTpfBn4BO07VVPN8blqkFrZ6ei8fno0NmJzs5WeNJ6CF3wdMrWKXVmUuNBa2en5jYpS78ql+/ULRprdD4I7dR5WtEp3y55mrS2wpNSrxnjZQkiPh/O+Xy4sF66ITgxut6DCzuE8ed8PlzY4cGo4n7hxGVp+o71GJNP0jG2fodqfmndHghPT05c9ojz+HYgskRa0olR2fjL0fEanEtw2bMDF8Ttlrb98pL46t32MJt+8caWrEdkh3LbhfTagQseT+L9tqo8guGGMEL3jSjHlwwjtDGM4cV6z7cF2LyhEr3/JgxvLi0AANw8/zpsl43v/bdK9G4ow/b5wnQ9N18/Dds3lOFN+XKy5d/ccAM2z1cvlcxptLT3C386b0cDS5URkUEpBcoi1QMYWhrG8IwRqC6lwIwRjJQP4+J16oupKsixdFgcP4yQfHx0COq/7M8eRnjtEEILhjEyQz1Rj43rt8HovDCCj+jsg5iG4dtGxIeGLDV7WHMfRmYMI1ST3vSzhYXtH10UxEBNCOFy5TkwMmMY4aVDBgN3Fs2OILx2CENLVXloxjDCNfqBYr1tF/JdCEM1QYQTBPusLp9dAvA9pR9ESEnfQagL5ySqxlajjjr0dhsrTZYsCGYgkCYXtx2BHhxMuAKNUmyJAk7jxsZjCQB9GtVaq5rh78zWF10tNqaJutMJI3kxFRMivXvhTRCUBAD0nYQ6NDnugeb5N2G5+LIeOPxF4u3VUdPaiY6OZv2eSZ1OOJ1VWBYXBKxBqzx41FGvWL6qWSPAZLSH0IpqRU+scZxOpDWpXR793k4hpklVFeo3yksbpzE9rHCuxwVfMy6tcmOsNDZ6rNSNS807cDm6kQFcu88v/Fm6CleSBnGW4Moq4Qfz/n4EeerJcOLyjmaMuKWVluLKJg9GxfGXZONHVmsH5sbW78C55k0YcZcqpo+VujGyqVkWyEojw+mnNOrx4cKmVbhSqtx2AEBpKcbcboyW6SxsySgiDUEMPB0S2iED4DhWhCIIpcmKjjmAkmGE64cw0BRM3kbZ7GnYvqES7Stm4e7rVNOuK8DdK8qiwTS1FbVlaP+fN+Du6wqguZrrClB+3TQsKdZePqG9H7FUGRGlzHigbF4YIfHK5RgsQVmXshe7ijcqUNZVhuJ09UI4exjBmjCGZwCAA0XHS1AmX39XiXBhTwt1r31lKD6vnseAeWEhuAEA54tQ/EGZMg27ylDWVYKSo45oQ5r2sGn7AWDmeQRrwkKbBYPFKJHyQTT9RxBeNmxzoC87tn90URBDC8QHCcU5UIaSQaG4+sgCA6W6rJh5HsGaEIZnqLahqzjanffw0jDUfRMpt122329UoKyrBEXnAWAEw0uHNANtVpfPNgHfU7CrQAzQhxb1m75e+10uD5S1HZOV4pL0ojvJbIk7A1BzYZ66YShnPTriXsyUQ1yvms4KpPP90wh7j6Wgq7EuvgMDZxXqmzvg9/vR2epBjUvrAGcHO9MkLqBqIC+mKtfTW14lWt8XUMeZx5trpdiAP87i8IHT6snJuTzYKO+0ICDv9EPW4UJdnX0lDo1wVsV6Yo12LqHRLlw6uDzolAe5Ar3weeWdUNShrs4Lr9cL765UrtEZ8IO1uNC8CmMA8vz7MdVbj5n19ZjpbYcQmijFyGOyINWH78IRFP68clfiSNnY+tW4AgDw49o98SfCt55mjJT6hXV694uBtFJ863kMI6VBOLz1mFkvbkfpHfhWdSsaW78DF6RAnL8d06Vtr/diql/YyLFVj+kGqmyRavpJlnhwyS38qdz22DDd60WhRrpZl48p4jGMVrNsmyqOKMCMtlKU+aT2y/IxJUn1y/J5sgDZmYvY/h9D2PQfQ9gu63il/K7rsfn62P8AgOuvw8/myQJgZ85i+3/0o+rF2LBJ/K3mD4SclJrTOHhYath/Fm5WTyYi0nDN9ddfD/WgZTRaUqwIM7sLkf+NagYA+d/kawR4VEGOD6RwVhFKFMEPaShFUdxvj2J4mRDcABwo7ipF8ceFynXFLSOxY/12iCAslWY7X4yyd4tRdFKVWt/kI/+bQhSqx2eRkXKxYc/jZSjtLkKhlFbfFGLGcTFUM+MKvpUvlEXMb38E58VAEQZLUKo4B/JR2F0sBu9GEL5dHaayj7T9RR+UKbfhmyKURvP2MC7Jg1WzhxFWbLtsvwHkf1OI4ndjwce4QJvV5SeDrm7VS5l2+101m5WlBtC7y7aAxsBJm36IEO3AoM6L3kD8y4mzqh7NHfIgjnqOiUIjoBoYgP1NiE2G9L4JFel8STfg5spZwh+Bfhw00cula8Uy2fVLKEWnbqaur69PGJSj43vzrFNWWe/1avT06a5N7frY6xXb5EtlIStq0KooCSZ0tqLsZKIPfX1d6OrqQpdi/DikR4rG3G4hyLPfi+kte5AvbVDgQxTsF6MppT/Ad9ElApjyd3G8e3WCIJSsNNn+dzXeE9y44gYK2luEdQaOID8IoVSZuxQF7U/i2gAADOIaKaijEPt9+NsxveVD5EUTM4D8lpfFgF4pRtYmDuhZkXr6CcbKpKJnflyr2PaYvEBAoxSePfLfK0aJrwwVUjtk5d8KH4tLhGfh/CPFKH2+BCXPF6NQvbCOwZNfYdPur3Dw6yv4/OsrONj5Ff4SnVoAp+pV8+Zbp8pKkV3E9t1ncPBrxSz4XPytz5WjDes7eUb8qxLVrH5JRAZc8/XXX0M9JDaMS+NdvWreeYTFKmaO48VpCmSl1+iic0IvMnCguKdI40EhdziOl6FUo+Rg/pn4cdnIzPYrjt8nWo8K+Sg6Kgaqyi+lNVDkOF6GYq1g6smp0VKVwxWxLRi98aIYZC5CSbfWtkO5/apAm9XlJ4f4xrqd9ZuVvdqZLk1GmdLX14XG2lq43XXw+nrj2phCNIjjh7+zNUcDOCkaOKkRBLHHZEvvwLj2WjAHN4rNk6H/G1PHUNmuXRWqNYvNZkivF+4EbcSlhapasrGShdktb78X0zVKLuUNaUaokLdnX7S01OhinUjZkrsSliYDhABX4YfqkQCC+1GgNV4mVlotCMe7WjPLqom679KsMWCXVNNPyY1v09aWWiL5KDyi8UwpN1hovDH/k1/hZ50XVQGtUQSkOBWAclX1yc/D8qMyDVU61TMt+fxs9J5SOW+OaiIRUTzDVS/zP5ZKzADDS4eEhsPnjab1hiOJVEjtihVhpkaAI/uNYmSuWCLn/DQ4cjDQF3W+2ED12lF8m87qh1aY2v5Uj596eRsNlmgG+QRTUBBXJVW+7QWYop4sJwu0xUqQWl1+8ohvrLsKG2UvknGlyQy0CTauer0aJRiSDbn/YmhMH7paGlHrdsNd54WvNxAfxHFWobmjE2K74mTJBExvjbbecq4UaNcrip5vq+o74O/sRKunJsNt/vTC2zj+VyJltWT7qySPu+B+A9X7SvGd4kYWKy01tmqtxjuBE5dXC/UKtUuTIUGAS689Mzknvr1DLJEV/DumJNv8uO23kan0A/L2SCXegCubmnFO7HwgrormeCm7Et8OtVFnzmJT50X12OROnEWHLJB2911lQuP/S6fZV03yxDcQm/QnIjLEcKAMyEfRu0JbTA6IDYcvHcLQI2Jve2krZTaKb2eKfw5ONVzsN2udm6LzoJAbHKfsbj9tfJnb/m9xRWo0f0ZYyPNaQ7SjiBFcUTdiahPHuYShKg2ybU+a92KBtpGZUuVTq8tPIhqNkjuXiY03x5Ums7lB9JTF92CZHQ3z54C+LrQ01qLW7UadV13qyYmq5lZlScJJxwXPr1VBYSsmSHqPR1tv6deHllpVaT+nE1X1zUL7hpkKmml2iKKs2mh/HE1VLTktVZLHV/KglLa8I38Xl3PjsrrB/CVrMVKKxKXJEMQ1mpOCyD+iOUGmHN9F2/lfFd9jpDRsEhsBQym+02wp3jqz6QcEcO2TQltqeQAgdT7g80WDZuPqSDEqGipQ0WC8qqVk8P9TlyQz6gpe2T2E7R9dRLTg2nUFuPuuG9Au9ZhpZ9CMiMiAFAJlENtiKkXpGxUo+6AYReelNp2EoNnAI+no9U72ok5ECcTOldQDamSHrleU7czAWY/NNeq2fYRGsDNd67KrOy6qB41m1SiBvq5G1KraFlKXJJxwkgRUXZ5fQ93ng11yNr01AuXawZ1cECvtVyeW9ouSBc06WzMQMKPMCOzBtWLNxrE7FstKQsVKk8H/UZIPbZNdAPktT2J6fT2mt+9HQVBq00wImp3z7UBkvANm4+4KDn7wFX72Yj82/cdX6Dgpa7RfFjR7s9ZkwGz+bEi1z4mIjEgxUBaTf7IIxe+WouKNMpR9UARHpnu9m3dJbEMqy80UG8mkHCKr0jhYotEBRPxQLOvhZ9zIzoFYe2uybU+a97QCbVaXn2T6DqJH9QG8amMnfq2KHGS2NJlIowOC+s25UDYny2gc84mjDwfVO5cooFrTGt8zqt1yLr21Sthlon3C0/hSqndUOduWIFafWNrP7XajzutTdMTgrGpGR87Ui9XhWoFlutlZVSo3C3oAzqT8j8RIWekqXJHay4+WJtOvWmmdrIF/f3tcb5Fag2ZbaFkk78M9KHzyScys92J6ux95UscGm5oRSV9fBFnl868v4pXOIaG3y4Nn8ZczsaBZ+bwb0F47TTG/ITfPil6H+0+a6PWXiCYd04GymHzknyxGqbzXu9uGk7xQI4V2nIy8qMt6lDTM6PrtkA/HKan03UWMjNt6yR6y45fmhvqtkLflNzUaqJPnPa3ePGU0A21Wl59s+tASV//SqXpJzpYqV11o9Kq2taoZndleOietXHC5hMGwhC/TuU/ZgDt0A6qumlb4m9XFppKZ6OntgqezI76EnY293abi8/6zwh/OSqyYr55qTV9XCxpra1GnaMRsI3L3cqLu0TKeslRuFarjT4vJ48N3Y+1srV6PMUVpsn1ir5XpIO95M70N9Y+/API+bMH0J72qtJ1cPj9xBlt3D2HTR7ISZvNmYbOq58xkXPOkNlH60b1XNZGISIMNgTJJPqacU4/TcKZAaOMMI7h4o5Fbmux3NYNMoxheGzJemizl9dsj/+OZYkPnIwgvC2dtsIW0xY7fMM4tGr98Y9TooiBCYrsbjuMzFO1K5H85TczzwwhV6+W8UQzfphVos778pBNXUksp4Hsle6pcdTVCHStz1nfA39kKT41LUerE5XKhpsYDT2snOv1++P1++Ds9tpRMyR43YXNHBzo6OuD3+9HZ2QqPpwY1LhfiYjkuF2o8reiMe5kOoCeremmwSNWAOyAGVKWqda4aeFo70ZFykAwTJr0r5tUog33Stvo1gmQBH+rsbzDLkL4D/WK11VlYvjI9vb7FB1Z19J2Eog/NcY0yKUuDRduSlLhq0NrZHNf5QhzVtb6q2UJPrBlNDzvIepYsvQPfrh+P0mSCWM+bGm2kTQiBWKm5SUzZM2aq5mDF8lnCn4GzJttRI6LJxmCgLILwIwMIVg8LPV3OVl+sRhGRv6gnajD9GwemSQ1+L1B3AjCK0dmRuI4BCj8pjga3wsuGERGDZaPzhhFeO4TwDMBxvNhYj3sm1m+PQhR/IG7hjGGEHgnG9xo6exSj8yIYXhSZYF/FJoJCzDgu5sIFQwhWx/KhQMw7i8IIPhLEcFxA1y6qUpWzIxiuDmJogdQzpUavnt8UoVjcdpSH4rd9diR6HgFA0QeqBlytLj/pdOGVuMiCpBe7MlGUJIGuxrr4QIizCvXNHUID3eLQ0dGB5uZ61FepS8hNXE5nFerrm9Hc0YGOjlha+P1++Ds60FxfFZcWAd9TGSktlD4apSSlqnV+P/wdzaivkqdCAL46b1y13goD9dJyNb2d9c3RYF+ibUWgF95au6pdV6FZnj7SkKi644kvcFg8153Lb0oxyF2DVnEdnZ2t8NSogoMAXDUedMoDpgl79u2CskBWM1qjUSYXXK4aeDweeExHnhL7YkDetlo9NteIpRtrWtHZ0QxFltalLpUr9cQq+8jgcsFVI+5Lwo4OMpsetvjwIzFgVYqRVeNRmkwi73mzGRc86zGqOH5OjDmX4PJ6Dy74duCyoWM7XpYg4vPhgme90NOlU71xToyu34FLYnKa7zAgm03D9n+rRO+/VeLNDTdg8/xpuPl6ISdJbp5/Hd5cIatueeYSDn8tnyOJNXdhg5i0Pe1/tekaTEQTncFAmWCkPCz0dFkzpOrxbwihRC/qCvko6pEFvpbKf2sIQzUhhCtUFbzkL+ozwgjVCPMPLQ1jeIYDRcfLUPqxI1ZFMyET609gZIEyLYKJShudLBbacwOi61b0oFgzhKGlIYTnGl+/VSltfzpo9CKZSht347n9+R+XokwKlpXH8qEi7ywYNt+ttgEjC0KqPBNCuFxYo2OwGGXvFmkGqRNue00IwzMAwIGiD8o021ezurwui8c/W/Ud7FE1OC7IqtJkUWJPdvJGuY0IBNC76+AEe+D8AvL359QE0OurQ22mozbp0NWorFKnJ9ALb10tWvri07FintYLfvx8xuVWegd6vairbczw+X8aLe1iQ2XO29GwRj3dGKezCvXNquCg34+OZnlpvwB8TyUOCnY1KgOqVc3S73Wgo6MZ9fX1qK82EGE1oa/lKcUHgqpmoWRjR3MswBno9cV/RFDraoRb0RurU/gtWdC0o1ncl2WJb26ZTA97xAJWkoKP0luaTJK350lMl4Jl7lW41Czv9bIZF5o3YWSVO2urLY65Vwk9XTY3q3rsbMalVWK3nsH9KNTtOXRiKL9uGupW3ID2/1mGXjF41vtvlWhfMQuxzkqvoOP3Z1IoFTYHnk1iM/6BT9DGapdEZJDBQFkhit8oQ8nxYhQNOsSG++UccJwvQvEHZajQeVFX+KYIpV0lKB50iEEj0XkHio6XoOyT+PIo+R+XyoJMAsdgMUq6SsXAXKyK5sjMJIEmE+u3S/7JYpS+UYaS41IHCDLnHXAMFqH4aIISeZRR+R+XokIr70A8dh+UoeyNUhR9o5iYRsK5V9JVhtLuxOee7rafd8AxWIKyrlIUn9T/BavLTyp9LYgvhJP5KmL6+tDVWAu32IudrE3umEAAgUAvfD4v6urccNfWorErW/fHrD601LqFxsnrvPD5etEb0EkPiGnS2wuftw517lo05kjQxoy+FiF/yBtslwQCvfDW1cFd2wghS6gaOgfg1CxSNrHTOxAIoFc8X2obuxIGjcbN3o+wW0zfZdtWolY9XVcXGt118Hp96NW7Rsj32V1roKSf+Ju9gfgPC9LvpK3Tg9gHAvW6hfzsRm3jQdUUHV2NqHXXwevr1U4XKd8m/bCQyfSwR6wapBDYKRifOBkgBstmetvh8AdVpa6CyPP74Wj3Ynr9k+NQwi0VH6Kw3oup+/ejwB8UG+6XCyIvKGz7zCf3TMDSZABwEVtfHML2g2fxl5NXMHhGPV0weOYK/vLRV9j04hBeSaE0meuX97E0GRGZ8j2Xy3VVPVIuEtFrk4iIiEiuBq1+A237GBaAr87IC3c2Y5qMr3Snd3wD/b1eNzLU7Jg583+IfW/fLpScCvTj2fsPoFM9D9GEtwQR3ybImog3Jrgf0yds0Gpica1ZiT3bxNJkPd1Y+Phn6lmIiHQZLFFGRERERDnvxF+x+hmpCmYlnjv+E3hs7gWTiChz5qD2pZ/EgmSBT7CeQTIiShEDZURERESTyd4DWPhMrBfMDW8/hn3vr4RnzZwEDc4TTSQforC+HjNTHViaLGu55t8Cz0s/wb7jD+O5ZUIvl4Gebqy/n1UuiSh1rHpJREREZMgEqHopN/8WeB67ExvEl0rBWex++C20nJCNIiLKWrdg5/FqLFOMO4ueZw5hy97TirFEREaxRBkRERHRZHTiM7Q8/hYWPvw2nt3dj0DgrHoOIqLcEDiLQM8n2P3M21i44C0GyYjIEpYoIyIiIjJkgpUoIyIyofffxPa/MqzqRbG9RSIimzFQRkRERGQIA2VEREREEx2rXhIREREREREREbFEGRERERERERERkYAlyoiIiIiIiIiIiBgoIyIiIiIiIiIiElirejn/FngeuxPLl82CrF1b9DzzMrbslY0gIiIiIiIiIiLKcuZLlK1ZiX1vV2ODKkhGRERERERERESUi0yWKJsDz/sPY4MTAM5i9zOH0LL3tHomIiIiIiIiIiKinGGyRFkxKsViZIHdDJIREREREREREVHuMxkoIyIiIiIiIiIimlgYKCMiIiIiIiIiIjIfKPsM3T3CX87KYvVEIiIiIiIiIiKinGMyUAZ83n9W+GPZjahVTyQiIiIiIiIiIsoxpgNlfQf6EQAAVKJ6jXoqERERERERERFRbjEdKMOJb9CvHkdERERERERERJSjzAfK1tyIZQCAfnTvVU8kIiIiIiIiIiLKLSYCZXPgWrMS+7ZVAgB6njmATvUsREREREREREREOeZ7LpfrqnqkXCQSATAHnvcfxganbEKgH7ufOICWE7JxREREREREREREOcpEiTKR8zpU3jxHPZaIiIiIiIiIiCgnGSxRJjcHrjV34f9sq4QTQGD321j9m9OqeYiIiIiIiIiIiHKLiRJlp9G39wBWPyP0eenccB8889XzEBERERERERER5RYTgTLR3i/RAwCYhcqb1ROJiIiIiIiIiIhyi/lA2fzZEPq9PIv+z9UTiYiIiIiIiIiIcovpQJlrpdBGGXAGX7LnSyIiIiIiIiIiynEmA2VzsGL5LOHPni/RqZ5MRERERERERESUY0wGyopRKRQnQ6A/rJ5IRERERERERESUc0wGyoiIiIiIiIiIiCYWBsqIiIiIiIiIiIjMB8rC6A8Ifzk33AfPmjnqGYiIiIiIiIiIiHLK91wu11X1SLlIJKIeJVizEvu2ST1fKvU88zK27FWPJSIiIiIiIiIiyl4mS5QB2HsAqx/uxu6esxALlxEREREREREREeUs8yXKiIiIiIiIiIiIJhDzJcqIiIiIiIiIiIgmEAbKiIiIiIiIiIiIWPWSiMbXNFzedidGSoC8P/wN09+5qJ6BiIgURjG8dgjhGYDjeBlKP85XzzBJjCKy6DzOzR3GyAzZ6PMOOE4VG0+X+XNQu/IuPLr8OjidwO6H30LLCfVMRJSYE5d3NGOkFMjb78X0PWyxOrvdgp3Hq7EscBaB/n689vIX6DxxWj0TEckwUEZE42b08Xtx6TbhbwbKslR5BOGN5zBcMiKOcMBxbCaK2wph6DXU6vJEpDQvjIGlw8Lf54tR9m7RJDyXIgivDWFYHiCTGyxBRXeheqzS/FvgeexObFg2SzbyLANlZNrY+h24sKoUAFDQXo/CD9Vz6HFidP1aXL7DjTFhcQBB5Pn3ofDdD5GXCzGnJR6c2+QW/g7ux/Qn9yBPPQ/JLEHEtwlX1KMxXuknBsrkowJn0dN+CFv2MmBGpIVVL3OVy4NOvx9+cWitUc9AlH2uCQqB97yjgygc1yDZDYi034tz7fcicrd6GkUtDmPg6ZAsyAUAIxhZGMJQ0zBGZWM1WV2eiOKdnIHi88KfjlOOSRgkG8VwNEjmQNEHZah4o0IcylD2QTGKz01RL6Q0/4fY93Z1NEgWCPRj9zNvY/2CcQiS8XlNKRvSY4kH53w+nPN5TN6XnLjsiQXJUuJcjwu+ZlxaJQ+SAUApxtybcKF5ByJL5OOz1IfvwhEU/sz7+5E0B3lULB+/yegzbFnwMtY/3I3dPWcRAADnLCzb9jD2vXQLXOrZiYiBMiIaP3nvfISZm/6E6S/1j+9D1d1zxK94pzHlL+qJJIggXC+UWnEcK0FZQwUqGipQ5iuGAwBKwji/WL2MnNXliUhbPoreFQJDhqsXTiSzR3BRLElW9EEpik/K0yAf+SeLUJQoXdasxL63b4cTAAL9ePbhl7H6/gNo2Xsafep5iZIYW+LBBV8zRtwmgmRYgkjzKowBAIJwtHsxs74eM+vrMb3dLz4XleLKph247FQtmnUCuPZJcdtZ7dKAD1EoHmtpmOpXz5N+fSc+Q8vjb2H1grfxbM9ZAIBzWTX2vP9DBsuIVBgoI6IJb/SOOcIfR09PwtIYxow+eA5CmKsIM2XVJPOPFGHmMXGe7+t/u7W6PBGRltEbL2IEQrXTGSfVU5OY/0Ps21YpBsk+wfr7D6Az3SXIaIJy4vIOHy5scguBrqAfDm87CtSzJTDqkareBeHwPolrP4wFmPI+bMH0dilyUoqRx9aLATWidDiNzsffwvrdQrAMztux56Vb1DMRTWoMlBHRBHcDvhXbRSv4+1fqiaQWKoBeJab8fxoIM1pdnohI5tuZYlXuc1NS/NAxB54XxJJk6Mez9/+VJcjIBkEU7G/H9CdbcG0qBamc63FZbNIrb//LmsuO3iXOAAClq3AlF6pgUk7r+40sWLasGjvXqOcgmrwYKCOiiY3VLg2JBrFKruBb+YTFYYQWAkARph6RT1CyujwRka3W3IUNYvW1nmcOoFM9nSglAUx52YuZ9U+icM+HKTcfMbb4jmiVy/wjGlGyJR5cksXJAODKXYyUUfr1/eYQdotZctkmVsEkkrDXS8Nc8HR2oF5qM6DXC3djF1w1HmzeuAxVTlVjAoEAfE/VokXv86WrBp7NG7Gsyil+7RQFeuHb9QpauvQWFLk86Oyojy7b63WjsUs1jyblfgR8dajV3Mhk81lND+3fF5avR5V88UAAvbueQmOyNElZATY/Uoa664T/Bj8ews8+uIKbXddhw7/Mwt3ieADAmSv4y399ja19mv3VAABuvn4aNtw/C+XXFaBcPfHMFQxiFB/+11d4xdbdiGC46RKm7CpG4aB6mgV3z8e5DXMAnMbUTSeEr/hzb8DlGidGbyuMVgfIO/opCl/6Kv6BMbq8muz3xkm0p82jn2LmS8lKlN2ASPutQmDN0PzTcHnbnRgpUfXiaTX9VMbursSVVXNwpSTWq1ve0UEU2trWWwThtpBQffJYCSraCjG6OIxw/TBGABT5KlCcMNBldXmreD5rkvKimJ+FvFSOKyUAQoOY/oyQh/TGK03D6DonLrunYUyWFwEgLxRBnj+AwneSnTOTy+i8YZy/7SJGZ4wI1Qcl5x1wnMvHtIFiFMVVJ4wg/Ih4Lqk4jpcZaKdsFMNrhxDW6yFSLVlPmrMjGL79HC6Wx/bBcb4I047OQJGivTANGssK+z4TxZ8UIv8b5exaItUDCJUb7Nkyag487z8sBMoCn2C9ydJkLlcNNv96Iyqcqmc1CM8mAQygZ1cjWhI9f5l+XkPcs5Jdz1rxjM4HAC7UeDZj47IqqFePQACBgQH0dCd4jrWUHjaJ9tjox9T6Fv28n1SsJ8NkvV6OenxCIEyzh0PZ7+zfD6xaJTyHaM5rVmwdefu9YrtiTowtWYvIalnHAkE/HC9rlZbT77Ux9nvjxNTx09p/DdHfFqvHRmfTWj6V9IuXOE8k4VyCy2tXY9RdGnumDPqRv+9dRZVew9asxLFtlQCAnmdexpa96hnUbsHO96uxzAkEerrxvx//zNQ1liibsUSZWRXVaO30o6O5Pv5BBQCcTlTcpB4pcNW0orOjGfXqIBkAOKtQ39yBTo86nl+DVlkvQX7ZQwYAVDXLpkWHTsT9TLpYSA8AQMUK2fKqaU4nqjTTxGazp2H7I5VoX6F6qQaA6wpw94oyvLlUuzWKFbVlaP/ZDbhb66UawvLl103Dkjnay1txpWQYoacHEGwYRkRz5alTtOk19wZcfvwunHv2VozIgjwAMHbbrYismyYbI4gur5b2NsKm4fI2oXdLabgkVrvEbbcqxkvDBcX2X8Q1IfHP0mlJ2wcZfVwIkuHop7EgmQ3pJxm7uxKRbffiwoZyRZAMAMZuK8eFbZVJt9G4Qsw45BD+XBhCsCmIofphjMCBIl+ZgSCX1eVtxvMZkOXFgr9fxOjjd4l5SZxYMgffzoXueLmxdfNxof1OXPrRnLggGQCMlRTiipm2rSewSPUAhpaGMawOkgHAjBGMlA/j4nXZ3W7f6KIgBmpCCMsDXQBGZgwjvHQIwUX626+3rLDvIQzVBBGep7V8BOFHBjAgDiHpPCgPRcfFhiCGZ6sWB4D5N2G5FPQ5/IWpF7ia1k50dDSjSitIBuHZxOmswrJ56meTND6vWX3WssrlQae/A831GkEyiGlSVYX6jStkpVLSmB6GLUHE5xN7SvSJgRAAcOOSfHx0sLsxfSe+iwZShuICItG2y4L7UbBnD6ZEmyr7Ab5Tzmof5xJEdjQLba7Jr92lbow0+7Ks581MHz8NGUy/sfU7cK55E0ZkQTIAGCt1Y2RTMy6sN7Hzez9KqVRZ7UtCkAwQOgNoYJVNmoAYKDPLWRUL6AR64a2rg9vtRa9qtjg1rehoroo+JAR6vairc8PtroO3N/YFwFn/a5sfEtLMbHqInFWyAJm4fF1dHbyyH0h3mpTfKHuhPnMR298cwqY3h7D9S9k8i67H5utj/wMArr8OP7tR9sJ85iy2v9mPqpbYsEn8reYPtL7FWVGIGYeK4AAwsjBs0wt2rE2vPMzBhWdvxchtQumn6c/9Sei1cvdg9EFvzH1DXLAm/yVhPmH4NNrYbdrbCJt7A0all31DIsj/v7EAF3AR14jdnaOkMOED6ti6u8Qg3GlMVZQ8s55+EH9fCl7kHf0U06Pp+TdMPSrOpBHQsCL/vWIUi4HCkZIRAA4UP1+K4iPGwptWl7cTz2fI8uJp4I47can0IqY+9yfM3H06Osd3NUI+djz3J8x8TsqXF3HNqdivjK27Cxd+NAdjYilIKR/Lh+nP/Q3Tk5bAnETmhaMBHsdgCcq6hF4r5UNZVxmKNUuHFaJYMW8Zis+r50kk1kum3lAiK7FYdFS7NNnooiCGFgghLuU+lKFkUAiKjywIawaqlMsWo0S2/2VdJSg6DwAjGF46hPA89dLWuVaKDfjjLA4fiOV3w1webJR/tQv44K1zw+2ODXXic8pTuiWv0sDis5YlqpJgCPTC562TpUkd6uq88Hq98O46aCo4OXGVxwJlatG2y4JwvCyUKrrmH9KDSCm+MxHzSOoHa3GheROulAJ5/nZM94o9MXr3R59NrmzyQBnGVvfa6IVD2szJxlT62WNs/Q5cWCVkJsW6672Y6hcOyNiqx0wECk/j4GGpYf9ZuFk9mWgSYqDMql4v6mob0dVn5JGgBq3NVbF/e72obeyCsGgfuhqfgi8aK3OifnNNbF50oVH2gOau80FesLbXq3yAE4YEVT/TJaX0iBeQLd/X14euRvkDYJq/lIoGv/wKm974Cge/voLPv76Cg51fIda0VQGcqsJSN986VVbq5CK2v3EGB79WzILPxd/6XDnaFvnvFaO0oQwlxxz2vGBH2/QCxm6bg7HQaUx97iNMf+kr5Ikvz3l/+Qr5UsmrJAGlcW0j7FS/LKD0p1hA6eincS/2wvARrpUFBADgmqBU3XwavtMLQs2tRORHhQAicDynqkpqQ/oJgQnp9/8kLBudehH5XVJAoxDf/TfZghaNLj6Pi4pAYz6mpFAF0Ory6TCpz+doXpyDK6WDmP7MCeQr8nshrtx2EVOl8+C/iSUeFSU/b8CVHwklyPL+IATDpHwsl3fqYlwpiclsNFpSrAgzu7WrGOZ/k68ZoEq3aFVGsSpncVzVTwCI4LwY6MJgCUoV+5CPwu5iMXg3gvDtqiY6Zg8jrFi2CIWy/c//phDF78aCf8NLw1D+gjJQGA3qDZbEBfwq3ihFkUba3lw5S/gj0I+DJnq5dK1YJiv11AtvbQvUNQn7xOeU+KedcXhes/islboatCpKgvXCW9uoql7Zh76+LnR1daFLMX4c0iMpVZAn2rukH1MVwR9pkFe5s1feP+Q3RScuP7ZK+Agha+A/byi9Eagxt9BzZ0G7F9NbPkSetK+BPbKeN934No2lolKTPccPGU2/JbgiBsngb1euGwHkt7wsBi9LMbI29ZX3nTwj/lWJ6iQlxDof70aPuO5ATzfaklbVJMo9DJRZIbYVYfRe7vJsRCxMFoDvFXWjDH1o2SX7LlhVDXmoLOulmB5xpMChYuQXGJDd7CriqjjY7Muv8LPOi6oX4FEEpHsHgHJVdavPT8u/GU1DlU51rvTKR2FbafQFG4oX7AhGU3jBllebzDv6qcbLtUookvBCoqiGqJ6YVuZ6u8z7h1TCTC8IdQMiz5YLD0m74wNtltPv7vlikEz795UiuOb/qceZtDgsVpUEHMeEUk3AMEJNw8qvoovDGGgbwEBbEMPyfGV1+XSY5OdzLC+exlRZm2Ox8cpAb6yapux8mZu8CrK9Igi3DYh5JIUhms+sLm+3YVzSrF6YGaOLgrGqjIMluu2djS46J7aR5kDxJ/FVbYF8FB0tEv4sv6QIdI3eeFGsalmEEt02xWTLYxiXbC1VNgc3Ck3tAP3fmHom6Ts5IPuvCtXpLM6eKqvPWmbUVMueX4FebyPUT7CUurH1j2GkVKhyWShrM2usTK/4mX3y9ntRqNWW1YcfRWsBsDMBfZlIv7H1q8WPX0E43tVqEC+Aa/eJgTr3Xanf0z4/Gw1iV87TaUIl6jNsuf9lLFzwMlazfTKaoBK931JCvfCm2ProTRXyYvw9OJj0qlKBdMeF7JN6eigEfKizsrwdzpzFpk55NTyD+s6iQ/biffeiMvQ+UobtS6elUHTZ4Mtd0pc54QW74vkSFEdfsEMYkl6w1bPHkVUbPPqpqiST3DR8J5UcCiYqSWIuWGULsyXZ/l8kVi3yB+r2w6bh8jahsf+8P/wNhXG/azX9puHyKimw+KnG74ukkj+qKnLmRRCuF5sOP1aC0rZilPrEl9iSMIYaknXqYnX5NJj057OUF9WlHmXnpCIQG6umqThfZCXFxn50J85tm4/Ld6vPC1LL/1gqcQUMLx3CwNowhueNJjlmaTYvHK0OifPFKNMNYo1iZK403zQ4NEpsKY3i22j1S/myBZgimyvOyamQQmWxEnhZousVWQl/oKq+A/7OTrR6apK23ZNeFp+1TKqpVoTJ0D3+mzBhjP1AjFQ71yMilg4q2JdiQ+5W+dv1G7PHYKwJCtKWkfRz4ts7xABq8O+Yorf6KBPVdk98g371OKJJjIEys3q7Nb6mKYuXK59lXJhXIfvXWY+OuMZL/fDLq2aOU1VDW6ScHkqBnsy3ZzF4Ul3yxKgreOWNIWz/+CKiBeqvK8Ddi25Au6fSxEu2DQYLUaT1gt0WTPyCLQsuXZuovaHofBE4uozMl2KwygamS7LJAwOlyoBAtPH+0CAKZY33R1lNv7udwu9Dv/OBc+33xnoUVZdGM2n0QbH0SKgYZW3iy/ORYpTJG+d/UJ1rYtUqrS6fDpP+fJby2NGAslRidLwqEBsdrz5fvkLhc5+iIFpVeA5GNtwpdITxeCVG9aonm1aI4oYKVKQ6NEntbFld3i75KHpXaMvLAQBi4/dDjwxEg2bjavYwgkvFYHayXi7xLa5IPWbOCAvbrDVIv4cRXIl2mCFb9tyUBOsAgCkoEIOJIzO/VU/MsD601NbB6+uNVRN0OlFV3yw8u2UqaGbxWcsc1fNrYABfyP4lI9TBk1iVS/jb43rL/O4H0Zb/cU3SgEjqlNU/KVWZST9ZO3elq3AhrgMDdUcHpfjOYOlzItJmxzsWEeEKDn7wFX7W0o9Nb36Fji9ljXzLXrLfrNV7wTb4cpfqy9zgFEwJ5ovV4ABgBCMll/Ctzs3TWHBJVuopdBpTEpRoMvZ7aTC3EpdNl2TT6fny7vmxxvtl1djkjO2vfvrp9haqI8+vV2ItNSO3iY1uH3Uotjv/vVKUHBPnuW8I4cXA6PfFF/yQVFpk1OLy2Sj3z2fNapQmxgMATn2Fwmf+hJnPfYqCUKx04Nht5bj0rLrnWIrJR2F3KUrfqEDZB8UoOi8eOTFoNvCIXq+PNps9jGBNOFYdMmGQjGL60NXSiFq3G3V1XvhkHS7Jg2adrRkImFGOCcQCZaVlGJWqXMKPqS3qKnTyHjL/kYEXtVhAJjMBoVyXw+k3fzakWutExEDZOOqDosmLXq9G46Xxg/1fBg1yrYh2+0up+fzri3ilc0joHe/gWfzlTOwlu/zGG9BeOx4vlaOIPBhGsG0IofuEdqMQKkLJ8xWoaCpGoea922A1yWippwgcr2oHjAQGfy8Nxv670EOf5ZJsUkP7cytxYcMcjWpscgb3Vzf9ZNU2//A3jY4H4ofpWqXaTLgilmLL/2f8nhW2VUSDXcP1QYTvUwfFvrW4fHbLzfNZzEuhQRQo8r9O9Urd8SqnvkLhMx8JPa/+4bSsSuZ8XLatZJnBaqvqIWvbKBPknyxC8bulqHijDGUfFMGR5l4fYyIIR4NkDhR3FUOvwmVMrKSXdgP68UOsQwDZsjO/TZKmsdJnjnN2hs1P40up/lDlbFuCWH19XWhprIXb7Uad14feQCxo5qxqRkdrTrUoGy/hM5/q+dVZgVyp7JBNoj1Zlq7CJanKZXtL/H3QuRij0UDZUIJnrDRZcle0Q6K8oTQUZ8sYdak+bZbbh0tb+sm239+u0YFB/KAuqZjUzbOiHXb0nzTRWzDRBMNA2Tj6Qt4qfVY31K/u3YjM+rzvDLa+MYRNH8tKpNw4C5uvl89lp1RfqGWMVJOMBoyAvD+cSNzQvJHfS5PvSsVXwYQlu/RclD1MTcN3cxM33h9lZH9TSb8MiJb2UilsK0NxCEIJJkDoye+9+JS1uny2y5XzeWydU2hHT13iUK96pd54XReR/84JTN8tPUjrdXxB8fKRf7IYpfJeH29LV5BuFMNrQ7FG+bu0e4iMlw/HKbH0m6qh/uRky864goQVKuddErcNyD9jLOcZ9Xn/WeEPZyVWzFdPtaavqwWNtbWoUzRithHZ1N5/apI/83V1yzqaQhWqs/cBNkUm2nEyKe/I35XXY40qlwAwtviOaEn2go80Zkiz0bukqnt+TBn/1afI5uO3xIMLUq+SJqUv/QKY8nfx4dRMQ/0GuOZJdej70c1eLIkYKBtPfS27EHvUqMJGK09VfSeh6JPJ8FOL8sugc9kK5ddWVw1aO5sVvRuRdcqe9NLB3Au1XLJqg2N3z8cFMWCEo58mLc2U7PfSJ1Yyy6xrgtKrYSFGnhUa749r00kl2f4mT79YlU9122jpNjVaPfK8zktxPhzRHuoAHJsqK5VSaHH53JPd5/M0fOsuBBBB/v9V5jG96pV645OJdXaRIDicMoPVVtVD1rVRlkw+ppxTj7NXpHoIYbHEVtEHRoNkgvyPZ4oN7Q/j3KLU8nv+l9Nivd5Wa18RgFEM3yaFyYowNVoizR59B/rFtsVmYfnK1Kq0G6XsGTMB089rdrDpma+rW/b8ClQ1t6LG7CNsRtNDNPgPMWhVitHFdkZaEgjswbVih4S6vRbKGvhHcD8KNGZJp7H1O3BJjPPk7X93nK+JKbB4/KIdKsgt8eBCtH0vc9Kdfnl79ok9arpxeX3q+53YHKxYPkv4M3DWUBuvrl+uxL73f4Kdv0zPNZYo0xgoG1ddaPTGHjWc9R3obPXIHjZccLlq4PG0otPvh9/fmeALZReUH/ia0Rr9Iel3PPBoPMkoSrY567G5xgWXywVXTSs6O5pRZfe1d0Kbhu2eSvR6KvHmIzdgs2sabr5e6hhacLPrOry5Qhb4OHMJh7+Wz2HFKCINQZMv1HKyaoNB5cv12NwbENl2Fy5sEKoz5h39FDMTNVQPGK+GmG63zVFWCZs7DWN3V2L0btk4DXn/UAWxQoOYnnCf7Ug/WUm2227FhcdviLWPBmnbb8Dlx+fjwrb5tn5NLPx9cezFtimMSLns18uFPDZ0n/RSG984v9Xls8cEOJ/n3oDRkvj27/SrV2qMn1uJC1Jj/XdPw5i6WuXcaRhddxcu/EgIdxbs1quOPFlFEH5kAMHqYaGny9nqvD6KyKIgQuK7muOU/dWQR+W/P1iCGWeE7RiN9k6ZTCFmHBc7jlgwhGD1MCKKZUcxOjuC4UVhBB8JYlg+7ZsiFIvLojwUv+zsCMJr5UE8I9VBU3TiCxwWH3Wcy29KsfplDVrFDpY6O1vhqamBy6X8BVeNB53yzpcS9mRu/nnNDvY88ymfX4EqNHd0orXGFUtblwuuGnFfEnZ0kNn0AAAEjiBfvN+OrXoMl5fIE8GJMecS1Th75Le0i4GOUow8th6jslWMLVmPC81iA/8IwvFyOnvCFD/aSZxLcNmzI1aaKrgfhbq9OmYBU8dPXiJrEyLR6U6Menbg3CY3xhBEgT8azUwgU+n3IQr2C/swtqoZFzzKPBTd9/UeXPDtwGV1EiSy5i5sEOfvaf9r0g7WXL/8CfZsqITTOQvLNjyMnWvUcxDlvu+5XK6r6pFykYje18DJxgVPZwfqpYtOrxdukw2IuTyd6Ij+UCIB+Opq0aJ7tapBqz/Jl0DN7VTti4ZArw89FfXReQK+OtQqNsRqeiiXj/99idH5zCjA5kfKUCeWNB78eAg/+0BWpSoq0XzTsN1zA5LEXWSuoOPNIbxi24t1BOE2sWpNqAgluwy+TKvdPT/Wk6KuCAp2n0DhX9QloTTo/t5pTN2U/pfq0cfvFRve1xKB47kEVSghBgqk0l9Gtll3f+WMpN8NiLSLJdgS0Q22mTe6OIxwvRic0RMqQlFoGMMLhX+LfBUoPiL8bXV56xKdp3KJ5sv983lMDGDl/eFvylKLUh5V5x2N8dJvJGckT09GEYQfkao8JpG0B0oIpa9kgSU5x/EylH6sXjqF9QMJq2WOLgpiaEHCs1p3+eTLOlD0QTGKT6q3XylSPSAE/QZLUNFtJF+K1qzEsW1C09Q9z7yMLYarEhl4tlJI9qwGY7+p+Rxl9VkL8b+hIfkzn6imFZ3NVQmraQIAAj7U1bYkeNk2mx42csoDUxr87ZipaGjfics7msVG+I0IwuF9Eteq4yXJ1osgCtqf1KyWac0SRHybkj5f5PnbUdjyoYEgnX565O33YnpaAkUyydIx7vghSRqIx6vcI/YcqT5+iZaNMZ5+wKjHFy2BplbQrt/G2Nh6WVBOl3r7E5kDz/sPC4GywCdYf3/yQFntS4/huWWyEQaXI8olLFGWAX0ttXCLPSjFX78CCPT2wuetQ5072YNXFxrddfBq/U4ggF6fF3WvaD1kiN2eaywXCPTCW+dGbeNB1RTSdhFbW4aw/eBZ/OXLKxg8o54uGDxzBX/5+CtsarHzpVqUaomTOLJeGONEkBc6Dcfuv2Hmpo8MvxDr9t6oUy3Rbvkv/Q1Tj0aUDyqhCAqODmLqc6m1DZa8tIyd6fcVCjf9DQ71tku/84dPMX3Tn2wPkgFA/pFilD5fhpJjDlmvigDggCNUhJLny1DRVIziaHtjQuP8w2KpFavLZ4dcP5/tqXaZ984JTN89iIKjEeRJPcBGxfL0dEN5ejIqRPEbZSg5XoyiQYfYcL+cA47zRSj+oAwVSYNkmZX/cSkqukpQPKhxXg8K+1D2RnyQDImWPe+AY7AEZV2lSYNkluz9CLvFh5xl21aiVj1dl/hs5fWhtzcAWbv9CgHpOSvpsxosPK/ZwcZnvq5G1Lrr4PX1aqdLQHyG3XUwyQtzJtNDFNiD6d52OPxB5f02GETB/nZM16oaaYfAHkyv92Lqfj/yFI3LB5Hnb8d0bzqCZMkEkRf0Y6rXi+kGgzwZZ+r4fYhCcZkYMd3rjQaVtIxv+uXteRIztfYdQeT5/XC0e1PaH9cv70upNBnk7UBKnLN0egEnyl0sUUY02clKTxXs/lPCdrhspyi5lQJ1qRhbTcPlbXdipETofTK+LTGVTKYfERHpm/9D7Hv7dqEEVKAfz95/AJ3qeYiynrHSTHGC+zH9SakKZ+w3xqXEl4Id259pmUy/9HGtWYk9Yslb9HRj4eOfqWfR5VrzQzRsul3sMbcfzy7g9ZUmFpYoI5rkxv670HZWfNtF6Rdbd2rUpWLsNPq4ECTTbnA/XibTj4iIEjjxV6x+pl/421mJ547/BB6be8EkIso9c1D70k9iQbLAJ1ifQpAMAPr2/hXd4uXVaAcARLmEJcqIJrVY6an0ltLKBdMw+vidQttmoUFMf6bfwFdMph8RUdZbsxL7tlVG29YKBPpxuP0jHNx72lA1I6LcNzFLRI2fiZF+rvm3YMVjd2L5slmx62FPN/7345+ZuBbG2jYL7H4bq39zWj0DUU5jiTKiyUzqIS/NpbSyzzRZSTahJ8zItlSDZJM5/YiIcsjeA1j9cDd29wjt6jidldiw7WHsYQkzIpoUbsHO449hz9vV2BANkp1FzzNvY7WpIJm8bbN+vMYgGU1ADJQRTWKTtdrg2Lr5uNB+L86134tz7XfiwoZyXCmJoOAPf8NMo0GySZx+REQ558RnaHn8LSx8+G08u7sfgYCqMWoiookucBaBnk+w+5m3sXDBW9iy10yA6xZ43n8MezbMEtome5htk9HExEAZ0SQm9JAH5P0hkNU9r9lL6hlQFIqg4A+fYvpzH6HQQJtkMbHfmVzpR0SUw06cRudvDmD1/W9h4YK30HJCPQMR0UTzGbYseBkL738Lqx//K1pMBchiKp1nEejpxvoFB9DJayhNUGyjjIiIiIiIiIiIiCXKiIiIiIiIiIiIBAZLlN2CncersUw2PhA4i/72Q2hjj0FERERERERERDQBmC5R5nTOwrJtD2PP+ytRq55IRERERERERESUYwyWKFObg9pf3ofnNswCAAR2v43V7BaWiIiIiIiIiIhymMkSZafR+ZtD2B0Q/nNWFqtnICIiIiIiIiIiyikmA2VEREREREREREQTi/lA2fybsNwp/Nnzx8/UU4mIiIiIiIiIiHKK+UDZzbMgxMn60b1XPZGIiIiIiIiIiCi3mA6UueZdJ/wROIvP1ROJiIiIiIiIiIhyjOlA2c2VQo+X6P8GfeqJREREREREREREOcZ0oOzz/rPCH5Wz4VJPJCIiIiIiIiIiyjGmA2V9J88Ifzhn4Wb1RCIiIiIiIiIiohxjOlCGvQfwbM9ZAJV47v2VqJ0/Rz0HERERERERERFRzviey+W6qh4pF4lE1KMUXL9cif+zoVLsAVMQ2P02Vv/mtGwMERERERERERFRdjNfogwAMAc3V16nCJIRERERERERERHlIgslyubA8/7D2OAEEOjHs098hM4TLEVGRERERERERES5yXyJsjV3CUEy9OPZ+w8wSEZERERERERERDnNdKDMNe864Y/AWXyunkhERERERERERJRjTAfKovq/QZ96HBERERERERERUY6xHiirnA2XehwREREREREREVGOMR0o6zt5RvjDWYkV89VTiYiIiIiIiIiIcovpQBn2fokeAMAsVN6snkhERERERERERJRbzAfKEEZ/QPhr2f+4RT2RiIiIiIiIiIgop1gIlBEREREREREREU0cJgNlc1D70n3Y4BT+C/SH1TMQERERERERERHllO/de++9V+Ujvv76a/m/iEQiAG7BzuPVWKaYIgr049n7D6BTPZ6IiIiIiIiIiCiHXPP1119DPhgVCJxFz+5urGeQjIiIiIiIiIiIJoDvuVwuRYkyNaFEGRERERERERER0cRmso0yIiIiIiIiIiKiiYWBMiIiIiIiIiIiIgbKiIiIiIiIiIiIBAyUERERERERERERMVBGREREREREREQkYKCMiIiIiIiIiIiIgTIiIiIiIiIiIiIBA2VEREREREREREQMlBEREREREREREQkYKCMiIiIiIiIiImKgjIiIiIiIiIiISMBAGREREREREREREQNlREREREREREREAgbKiIiIiIiIiIiIGCgjIiIiIiIiIiISMFBGREREREREREQE4P8HXTz86vIYO6IAAAAASUVORK5CYII=;" vertex="1" parent="1">
          <mxGeometry x="60" y="60" width="520" height="78" as="geometry" />
        </mxCell>
        <mxCell id="mgSLJoRUOdjEDRv_r9Cd-5" value="1、内核NVMe驱动PI仅支持8字节（T10 DIF），因此支持的盘片格式包括512、512+8、4k、4k+8" style="text;html=1;align=center;verticalAlign=middle;resizable=0;points=[];autosize=1;strokeColor=none;fillColor=none;" vertex="1" parent="1">
          <mxGeometry x="40" y="160" width="540" height="30" as="geometry" />
        </mxCell>
        <mxCell id="mgSLJoRUOdjEDRv_r9Cd-6" value="关键函数：&lt;div&gt;1）nvme_configure_metadata&lt;/div&gt;&lt;div&gt;2）nvme_update_disk_info&lt;/div&gt;" style="text;html=1;align=left;verticalAlign=middle;resizable=0;points=[];autosize=1;strokeColor=none;fillColor=none;" vertex="1" parent="1">
          <mxGeometry x="40" y="240" width="180" height="60" as="geometry" />
        </mxCell>
        <mxCell id="t1S6DIisRkLU6tecjmQf-1" style="edgeStyle=orthogonalEdgeStyle;rounded=1;orthogonalLoop=1;jettySize=auto;html=1;exitX=0.25;exitY=1;exitDx=0;exitDy=0;entryX=0;entryY=0.5;entryDx=0;entryDy=0;curved=0;" edge="1" parent="1" source="t1S6DIisRkLU6tecjmQf-2" target="t1S6DIisRkLU6tecjmQf-3">
          <mxGeometry relative="1" as="geometry" />
        </mxCell>
        <mxCell id="t1S6DIisRkLU6tecjmQf-5" style="edgeStyle=orthogonalEdgeStyle;rounded=1;orthogonalLoop=1;jettySize=auto;html=1;exitX=0.25;exitY=1;exitDx=0;exitDy=0;entryX=0;entryY=0.5;entryDx=0;entryDy=0;curved=0;" edge="1" parent="1" source="t1S6DIisRkLU6tecjmQf-2" target="t1S6DIisRkLU6tecjmQf-4">
          <mxGeometry relative="1" as="geometry" />
        </mxCell>
        <mxCell id="t1S6DIisRkLU6tecjmQf-2" value="&lt;span style=&quot;font-family: Helvetica; text-wrap: nowrap;&quot;&gt;nvme_update_ns_info&lt;/span&gt;" style="rounded=1;whiteSpace=wrap;html=1;fontFamily=Lucida Console;" vertex="1" parent="1">
          <mxGeometry x="40" y="360" width="130" height="30" as="geometry" />
        </mxCell>
        <mxCell id="t1S6DIisRkLU6tecjmQf-3" value="nvme_configure_metadata" style="rounded=1;whiteSpace=wrap;html=1;fontFamily=Lucida Console;" vertex="1" parent="1">
          <mxGeometry x="100" y="410" width="190" height="30" as="geometry" />
        </mxCell>
        <mxCell id="t1S6DIisRkLU6tecjmQf-8" style="edgeStyle=orthogonalEdgeStyle;rounded=1;orthogonalLoop=1;jettySize=auto;html=1;exitX=0.25;exitY=1;exitDx=0;exitDy=0;entryX=0;entryY=0.5;entryDx=0;entryDy=0;fontFamily=Lucida Console;fontSize=12;fontColor=default;curved=0;" edge="1" parent="1" source="t1S6DIisRkLU6tecjmQf-4" target="t1S6DIisRkLU6tecjmQf-7">
          <mxGeometry relative="1" as="geometry" />
        </mxCell>
        <mxCell id="t1S6DIisRkLU6tecjmQf-4" value="nvme_update_disk_info" style="rounded=1;whiteSpace=wrap;html=1;fontFamily=Lucida Console;" vertex="1" parent="1">
          <mxGeometry x="100" y="460" width="190" height="30" as="geometry" />
        </mxCell>
        <mxCell id="t1S6DIisRkLU6tecjmQf-7" value="" style="shape=image;imageAspect=0;aspect=fixed;verticalLabelPosition=bottom;verticalAlign=top;rounded=1;strokeColor=default;align=center;fontFamily=Lucida Console;fontSize=12;fontColor=default;fillColor=default;image=data:image/png,iVBORw0KGgoAAAANSUhEUgAABHoAAAEZCAYAAADol0ImAAAAAXNSR0IArs4c6QAAAARnQU1BAACxjwv8YQUAAAAJcEhZcwAAGdYAABnWARjRyu0AAGldSURBVHhe7d1/cBR1vv/7l1f8kch+FwzHrGBCIgUKFSKsu24WrkiRuyzcFYWqoGfdPctBwDIeKy61y7duXD2bPbrku9fa5ZhyjQcJLB5La5UqUPSG5WxSyPfictx1wZgSlYpjiKDjIYJXl6jIN/eP6Znp6eme6Z7u+Znno2qqkunp6e5Pf/rz6Xn358d5NTU1owIAAAAAAEDR+9+sbwAAAAAAAKA4EegBAAAAAAAoEQR6AAAAAAAASgSBHgAAAAAAgBJBoAcAAAAAAKBEEOgBAAAAAAAoEQR6AAAAAAAASgSBHgAAAAAAgBJBoAcAAAAAAKBEEOgBAAAAAAAoEQR6AAAAAAAASgSBHgAAAAAAgBJRcIGe6hW92toZ0ta2VlVbF5o1bIl8rnOL5luXAQAAAAAAjEGFFeipalXz4lpJIXV3teuYdbnZ8QGFre8BAAAAAACMYQUU6KnTyjV3qFJSeG+Lnh2yLK5qVXtnr1pW1CW+Hx5Q5KN1Wtncq63NTYnLAQAAAAAAxojCCfQ0/FhLKyWFN6tzZ79lYTQIVKs5i3dra9sWzddRvW8srWrYovbO3VpaXyvV36WVVZbVAQAAAAAAxoDzampqRq1v5l6TWjof0hyF1L1xUXJrHklSneav+LFuXNyoSusiQzjcoxe61uqA7foAAAAAAAClrSACPfObQ1pTL6lvg27v3GFdbFGn+Ss6tGZxbfytcI+6CPAAAAAAAIAxLv9dtxq2RII86lFXuiBPVZNWNluCPJJU2ag1a7ZoZYNl/B4AAAAAAIAxJM8teqJdtqTD22vVcdC6PKpO85s7tKY+HuAJ9/Xo/fpGzQn36HD4Ss2JLguH1N3l1P0LAAAAAACgdOW1RU/1irs0R5EuW85BHknq19AHxp/hHnVtrFVr5x7jjQHt6lyktu09kenWK9/RCYI8AAAAAABgDMpfi56qVrXfe4cq1aOu5rU6YF2epE7zG6QDB40ZuezWr2rSfO1grB4AAAAAADAm5alFT3S6dOnwdjdBHknqjwd5nAwR5AEAAAAAAGNXXgI91Ss6tLRSUnizdqXsspXClGmO06wDAAAAAACMRXnouhUdgDmk7o0MmgwAAAAAABCUnLfomd8cmWUrvLeFIA8AAAAAAECAchvoadiiNfWRLludO9OMtwMAAAAAAABPchjoaVLLqkZJIXV3teuYdTEAAAAAAAB8yVmgp3rFXXTZAgAAAAAAyKLcBHqqWtW8uFZSj16gyxYAAAAAAEBW5CDQU6eVa+5QpaTD29fqgHUxAAAAAAAAApH1QE/1ig4trZTUt0EdB61LAQAAAAAAEJTzampqRq1vAgAAAAAAoPhkvUUPAAAAAAAAcoNADwAAAAAAQIkg0AMAAAAAAFAiCPQAAAAAAACUCAI9AAAAAAAAJYJADwAAAAAAQIkg0AMAAAAAAFAiCPQAAACMCXVa2RbS1s6Q2lfUWRcCAFCAqLsycV5NTc2o9c2i0LBFW1c1SupRV/NaHbAuD0yTWjof0hzr2y4c3l6rjoNK+I7w3mVq3dlv/WiB87v/KdIwvFltbe06Zn2/oPg9fr+KPf1QWOq0sm23llZG/w+pe+MiPTuU+CmgcJjybN8G3d65w/qBFFKUn5LC4ZDef+1R7dq5w105WtWq9nvvUKWKtPyN3TsV6f7nXIr8Q/qVuHzf+xU70g8Bou7KSPG26Dk+oLD1PQBAGv06kVB4vqMTboM8DVu0tTOkrZ1bNN+6DKWvBM9/ZWWt5ix+SG1uj2nKtEiQR5Iqv6NvVSUuLngH/1XdxvUffm03N8oYG0qw7Mop0g/5Rt2VkeIJ9FS1qr2zVy3W5lrhAUV+o9RpZXOvtjY3JS73bYc6mmt1e9JrWSzDqW+DzfJoax7YpWFXn/UzcEb6IVhDH4Ti/8TKUKDEWevqjcvUtTd6LTRqjYv7h/lzjSeKkqRaff0bxdaEvF/PtkWOnyfsblD/AkD+UXdlokgCPXVaueYOVapWcxbv1ta2LZqvo3rfWFrVsEXtnbu1tL5Wqr9LK4vtCRsA5NCx99+J/xM+ypMRjE1D/Tqwc1H8h3v9kjRPq5t0bX3iO5VfuzrxDQAAgAJQJIGefj3btkxde3si3bUqG7XmXqPPdOUdWrOqUZWSwuEedTHWBACkZur6Gv7gTctCYGw5cKjH+OtKTU71oKhhiTFWS0jh6AWUNjgEAACQe0US6JGkfh3YuVatzeam1oZwj7o21qq1ba0OEOQBgNSG4i0i33+fJrAY26ovv9L4K/V4VfFuW+/ohT3R4FCjrm0wfQgAAKAAFNesW1VNWnnjXZEuWlbhHnXv+Vc9ezBXP1q8zAJiN/J8neav+LFuvKZRlcbIjuFwj17ochGsMtLh6/W1sUEhw+Ee/TVrx2+//9UNP1bzkvj+K9yj7q61rlpUzW8OaU19BiOn2xy7wiGFw4+q84UdOuZi23ZpL0W/5x399ZA1He2O38I8E0sOZjHKOP2cjt0kPlucVL2iV22La13Pbhf7fKr9sjmH6fNv/HpLdQ1JUji8WZ1O2w6E/Xad84+Zw7om5vSPsMt/yd/juvyQTOnpMa/mbLZDe9UNrVq+5Du6vNJ0/cuc9mv1bNLYaHbpZyN2bNY0sVvfS/nnd30Tm2vHXfkX0PWTt/Pvpb61Ms2a5LBurDx1WB5h3Qel/d6g+c3/VimvhxjrLH1ppCr7ZZ+H05f/EZkdf/ByVf/GBXP9RtNvTqXNPbRc5OOMzl0w++5bRmWXfdlt3Xd3dW/yelbJ5z7I7fuU9/TLNP/5Yb//GdXdNsdtlXz+zepU3bAsD9dvMDIru0un7sqnImnRU6f5zb3aeu9DsSBPuK9HhxW5wA73haTKRi1dtVtb23oLf4yeqla1d+7WmsWJF3xlZaPW3Jt6/6tXxNPBnHcrjeNvtw5WnQ1VTWpp2622VZYCq7JRS+8NqSVLTzedjl2Vtaqsf0ht9/aqpSH18Vcb4zlZ016Kfk+jli5ZpmrLopQSptst4O6DVa1qaXM4dgfHdj4auc7UqBvT5q06fesa4/p0GBHf6Rx6zr8pjqWycppSXEK++Mo/KfbZEx/lR1x0ULt0ebVJLZ0hY7aNUHxqSzVqjfn92Mvt9r2b3xxS26o7NMd6o6B42n/9cpf5xw+/5V+G6ztdO17Kv5gUeTHx+imc858t1Q1bIj/aFVL3C6lukpfp60ZaHT60Q9IOvep6bB//Cib/++CUh92U/0V//CmuOc9SfJdj/VfVFEu/TPg5dwky2feMZKHsyrTuTXHMnmS6/YwUUPoFmf/8yLDu9n3+Y9stgOs3A0Vfduc5/XyrqakZLYbXgvXvjPZ2j472/u6Poz+4vma0puano7/pHh3t/d2/jS6oqRld8Pd/HH26e3S0t/uPoz+wWT/4142jG343GtmnX/3UZrn5Zexr9+jo07+K7ufo6NO/+jfjWGpGa66PfyZ6TNbviaVB9+jo07/66eiC6Lo1N47+4FfRZe+Mboi9H9TLaf9N+3D9v8Xed3MOfvCr1MdqfSUeuyndampGF1z/09HfRM9F9+job/4+ef2amprRmr//Y+wzvb/74+iGv78xcfn1N44uuP6noz+wvm8+/vWJy+L5zsib1m1m6eU1/RLPzzujv1n/08T1TPnPmn7xtE9zfLH0tf+cv/wbv94cr6E02/f9yjj/+Et/5+vPW/mR2cv0va5eTufP58uU9ol5J/5acP2NDsftfP3ab8N6DE7p77b887u+9drJpPzL9PopkPPvqb61vkzHkLBuYrljn27xl105aD4v6db39fKV/60vU15IdT14eMXqoxTp4Kv8D/T4/b9yWf9GXplev9FX9PuNbZvT7/ob48fjcG35One+9z3TVxBll1PZ7aHu9XXuA9h+xq8CST/f+c/Py2n/3dfd/s5/4j7k5/r1+Qq07C7CuqsAXkXSokc6trNFXduX6fboODxV03W5JBlPAI4dXKvWjRvUtdFtk8L8qKw3Bo7eu0ytne3xpopDO7QrOvaQ7VONJi1fbERy+zaotdPcTL9fBzpbjOnea7X0xvRTxGYquv+Hty9L3IehdrVuz9KYBVWtak44dlO6STo2tEMdbfHp7ues2mLzdLVJLdEnEuHNamtbm9zUbqhfx4Z26ID1fQfVK3ojkX3Fv7Mw81501jrFuqV07NyR2OImRasOd6166rRySSR9w3v/1SYdgsu/jtdQVvnJP/7S38zx2NOWH5myTC0cu8Z71GWZcjjyStdCKDPxMVR69EJC3ok7NtRv24osSH7Lv4zWD6T8i3PMQ7YK4/wHpv4h0xPo3VpTH+lm2rVxUYom80porai+PbHy7dhf/iM2qPnlWXwiWSj5306sG5ORp+zT0V/5X8jHn15w5b88X78yui9Euj/Etm1eZ8haX1n5O3dm3vfdj2DLLsd9T1n3BnfuM9u+H4WQfgo0//mRUd3t+/zHr92E9fN0/WaikMvuXNRdhaBoAj1Sv80PKIuhHVmuOILh1LcwPuVx8swf1Svuil/sts3L+/VsdHDILDcjj1wQyfuvg3uMgIA0Z25wGb76G98xCsoedTn2PzUdf1Jha0m/rhR9MF2Kj10TufhT9uvMt4Yfx/qohve2pKyM7cW7KFQu/rF93optI6S//iU5bwSdf52uoWzxlX98p38ip2NPmDK9ZDXqWrfdk7LEb/nndf0gyj8rpzw0JlXeoTVrtmhlqnyV1G3LMLRbfzUiPZXXOHTZDFT+879Z9Yre2I2y+jY45qngyv/COn5XAi7/5fX6NW0/k20Hd+4iPO17gXHad8d794DPffrtF7b0+19iv338nn+/6xdU+hVW2Z37uit/iijQYzFlmnHzW2TCm9XpkKGcmZ4mhv9D/5n2Yk8uLAOT4oKQ3tT70cebgTEf+0Dq4LepsE18uuo1/VKb3xwP8oT7Nqit0xKhLzDxmWJ69ILjuUvtwAubjSfX9q16Ytvoe9SmMvKa/mnyb0bXkB9e9z9REOkf4+rY06RfETq2M/rURJqzare2tkV+mGf/h7WF3/LP8/pBlH8WrvJQierbYHoCvUxtGzfocDg+xp9jP/vY/UZI7x83L+jXf74WfRr9HX0rS9ddweR/s4Yt8Ycd4c1qcwxCei0/k8uvgjx+lwIt/+X9+jVv3zv/5y6Bx30vKBnse6Dn3tX206R/Prnaf6uA858fnutu/+ff7/qFkH4FWXbnsO4qBMUb6Dm41rhZK9TuMvacBqlN7WpdHo1qVd6htqRB0KyDpdXq8imm1QMU/uBN61tZZjr28NE0aRcvbCu/drV1YUTa70it8pqOSHN/SQobTRGtHyoodZocTT9TlwPPhtr1glOrnqpW3ZhyMNNg86/jNZSLMsFz/gko/Q2Ox17y+vVs2zJ19YUiAUfjh3lbZyh245ALfss/7+sHXP6lykO5uH4KSqSrZUfbIrUZXQcqF++2HVAzdsNtc7MX775Vq69/I1v5sDDyf0xVq9oTurKmauUYRPlfYMfvWrDlvzxfv6bthwdi77oXxLmL87bvhcVx3x0Fe+69b7+wZLb/weY/P7zX3X7Pf+K1mzbGYKsQ0q/Ayu6c1135V7yBHhSg+EXhvVAsDuHXWmI/ClTZqDVtrfmNTKdlKqh8cmrVM//G6IxjyT+CEFz6o18HOheptblWbds3R1piKH7jsLXTw6xTWeG3/PO7PjKV8NQxqdtdk66N9uO3+7EydFTvG39mt/tWgeR/8yyT6lFXyhvlIBXI8XuS7/I/MVCMXMr3uUfu2NXdfs+/l4c8ha5Ayu681V35RaCnKJiaBSY0PXd+2Q8qlWUNS4y+jNL772fSzNCO6dgrp6e5ibYrbC3Sfkd6x3bGnwCr8g61NTf5/s68M507R7ateuI/gg7vcSo0iyT/uhFA/rHlJv0Rc+xguzraFkW632zvUTgsSbWas8quRYZ9s2qr+KCBGfJb/tmuH3D5Bwf9OuGUzqbzUrl4d/LTvM7oYJnKavctM2/5P0hNaondKIfU7Wryi+DL//wdf5bktfyP1+HJgj93sMjruS90RZL/bOtul3yf/+K6fvNXdhdG3ZUPBHqKgmkcgAId7EmW/qSvBpbZzWMg2I3Ib+JY2AY/jsKxnYvUZQQ9VP+Q2pqtT4ELhZsfiqYZpdKwtuqJDVQW3qxdjue8OPKvMz/5J9j0LxyF0he5PzLjonnWqSUZtLIz99nOkN/yz379IMq/bCiU8x8UUzN5i/h5cSPXTbcDyv+uJM8Akzwem51slv+5PP5M5Lv8T9y+nfnNpkBlkmyeu3zJVdmV73OfLblKPxVN/rOvu/2efzfrF/P1m8uyuxDrrtwh0FMk3E1xnT/mEcztp9fOXHwMhEatcQyoxKf3tvuhFU+/Wi1dk3r6YbcOdNYmBHvaHfctn8xPqu2CFOYC0IWEVj2744NS23VpMCn0/JtO5vkn4PTPt+MDORiPJBOmdE7Bduyahi3xPtsZ8lv+pVo/iPIvMAV7/n0yzaqV2Ew+HgAK712W9PQu/tpgP+tKzrjL/37Mb94dmwHm8Ha3N8oR2S//s3/8mcl3+Z+4/UR1mt9smnnGQfbPXY7kvOzK97kPWM7TL6LQ859z3e33/KdfvzSu3+yX3YVdd2UfgZ6isUO7TANGtje3an7ChV+n6qomrVyxRe2dvVqZVCgE5erEiGtVk1aaZqHKbGT9NIba1RntKlX/UPKxVzWppc18Ids1yduhju3GrBOVjVrT2Zs88ntVnaobmrRyhfuuWAc649HoyvqHnGdtyaN4K5xaLV0TT7vqhtZYuoX3bnY3Y0/C90W5mRGgUPJvpjLPP0Gnf16Zp5Ne3GEZSM84h4H3tW5SS2dI7c2tkTSvsn5/neabb7aSgo7mpzIPmfqCR26Utq5qVKVCOtznZlYav+VfBusHUv4FJC/nP5vqVN2wxdRv3zKgvCkAlLqV1A69Ggv6B/3kz2/+9y/hx0zfBu06HtmPatfltJ/yP//H70e+y3/z9mNpbpQZa+prpfBmdUfzri0/566A5KHsyve5D1Qe0i+iUPKf97rb7/l3Wr94rt/8l935rbsKw3k1NTWj1jfhRp1WRm+u+zbodsfp2WRk9kjkNrx3mfMUfQ1bjNG7nZuWVa8wFSyOnNfPTHz/Uwn3bVZnp9M4LYnmN4ccI9GHt9v3c0x/7CEd3t6ijoMO6SupumGLmlc1Gjf1DpJGYk93/kx5wfEzwfKafs5pF9LhvS3q2KnYMbjZf/P23Xw+ynk/zOzybzyNvWwvaJnln1TH7Sb90+U/g4vyIxAJA9rZSFseeuWu/JHs0z4i1XcY6TXFKf1SrRsX7tugTttZ+PyuH+Gch6JSlX8BXj85P/9KKmNTStq+u/SPpN+ihLIznuY96kozI5D5/NiVwZlzu/+p8r+Zc1ra5w0P25dsrp+49HlYNut72L6r4/cv9/Wvv+vXafvRMqcqejxJ106c03cksp47+d73QHkuu/zXvc7p5ubc+99+oPKQflHO6WjmvH5m3JU9qepu5/12c/5TrZ+r69cPd+knuS27i63uKgy06Ckyx3Yu0u0bN6g7OlVdTEjhvh51b1+mtuZcZrSQwuEedW1cplaXQZ5MOR57OKRw3wa1bVzk8CMn7tjBtWptXqauvdFBwEzCRhru8RpVjkwfGGvZs3h3bkaQ9+DYzkWRgc9M74X7Nqtr4yJ17OxPaD5p273F4sChaOuHkP76l9RpbuZ4DvOWf73JNP8Enf55NdSuVrtzGA7p8N4NajO3iAjEDnU0L1PX3s063BdKTnejDOrevky3O94o7FCHsc9xRrnhK7+Zyz/7G73U3K/veO14KP8CkfPzn2UJ6WdeUKdvXWPc2LmYHjfexS7o7ltB5P/C4JiHU5b/xX/8+S7/o9uPclvmmGV27gpMHsqufJ/7QOUh/aIKL/+5q7v9nv/Y+qYvcLNdq/ykX/GX3VH5Sb9g0KIHgGexJ5opniAApcHlU0lHftcHgGwpoBY3QEEphrqb6xep0aIHgDdVrbqxXpIs41kAAIAicrUudzUOFYDCw/WL1Aj0APCgTivXGH20+x4tyGaKAAAgeXIAq/j0zFmcrQ+AR+mvXXH9wgUCPQAcmUemr06Y3adHXXTZAgCgYF2++CG1dfaqZUXiuFGR+txpamgA+Wa+dq0zVnH9wi3G6AHgwGHE+nCPurrW6gCteTAm+O2n73d9AMhEk1a2PWQ7S40Z5RJgJ591t7trV3nZNxQTWvQAcCc6s0IbQR4AAArbDj3bVqu2pBkHpXC0Pt9Yy49EoOAkXrvWGau4fuEWLXoAAAAAAABKBC16AAAAAAAASgSBHgAAikadVraFtLUzpPYViQM0AkDpouwDAC+Kt+tWwxZtXdUYmf2neS2jjZc0h0GBJSm8WW1t7TpmfT+B3/XHunwOSAcgQazuo/wCSl8x178B7ztlX45x75wL85tDkdmz+jbo9jzMZpvv7btXp5WxmX8lKaTujYv0LGOGplS8LXqOD8gyNhWAdBq2aGtnSFs7t2i+dRmQbeQ//w7+q7qNyi/82m5utHOJ/Du2jeXzXwjHTtkHjGH9OpHww/8dnXAb5CmE8itPiifQU9Wq9s5etViba4YHFDnPdVrZ3KutzU2Jy1ECdqijuVa3m15dfdbPpOJ3fQAoFP16ti1Sjvl+Qg4ARYOyL7e4d0ZhGfrANHtg7Pc/UimSQE+dVq65Q5Wq1ZzFu7W1bYvm66jeN5ZWNWxRe+duLa2vlerv0soqy+oAAAAAAKDoHHv/nfg/4aO06nOhSAI9/Xq2bZm69vZEumtVNmrNvUa/0co7tGZVoyolhcM96qK/HgAAAAAApcE0bEv4gzctC2GnSAI9ktSvAzvXqrV5mbr2mppuSVK4R10ba9XatlYHCPIAAAAAAFAahuK9ed5/n+6bbhTXrFtVTVp5412RLlpW4R517/lXPXswyyfe2Iev19cqNvB3OKRw+FF1vrBDxxwDTfHRwuOzD9Rp/oof68ZrGlUZ+zIpHN6sziyNZl/d0KrlS76jyytN+6/oMbyjvx5aq2cPmhdER92Pzm5Wp5XNHcY5COnw9kXqOKjIsTR3aI3xfvf2RZbvibI/ZrPD22uN73QWGyU+w5H/fa1vkwfC4R79NWX+K4zzn9lsdXYzZyTvezjcoxe60gVbk9ezSj7/QW7fr+TtWiXvf3C8X782Msq/Zg5pENuHFN+TUf4zsdn30i5/lXLmE3cz2VhnqkgjXZlocw685R/3qlf0qm1xrev8Evt8qmPws/9+82+eZZb/TGzSzt31FyT769ZV+eO0rknK8juQ8++wD477XyD1X0bH7nff/ZZ9cb7zfhBsrh/XZY9NulnZ591g6z63985ZKbt9sT9ms+T085t/zepU3bBMy5d8R3MqbX7DKtuzXvncvk3eTV/2B5l+UdH87HHGrYzKr9JQJIEecxAhItzXo/frGzUn3KPD4Ss1J7osHFJ3l4eT70G84HIS0uHtLeqwLbAthe1flqllzR2aY1vgZCcjxgroFJIrT3Og5181OekHg8P7doV1VWuKY45LLmyTua1snGS6fro8kJx+Ufk6/843SvbsCk9LYf2XZWq/947Em6UYu/UNGZ//gLbvV8b7H4zMrt9EmeffiOqGLWo2uso6Srimgsh/Een2vTTLX6VMQ/vPWwUX6El3Dtztjxd2N4pO7H7QJPK+/85pb885/+Zb5vkvIl3apb7+guG9/DHJqPwO9vxntv/5qv+COHa/++68D6nyqpXfvB+EdNdPyu1nlHejgq373N87B1t2+5Jx+vnNv4aqJrWseSjt9lMGWvzwuf10ede57A8o/TLiXHbYC3r7BaSmpma0GF4L1r8z2ts9Otr7uz+O/uD6mtGamp+O/qZ7dLT3d/82uqCmZnTB3/9x9Onu0dHe7j+O/sBmfb+v2Pa7R0ef/tW/GftgLLv+p6O/+V1kWW/36Ohv/j55/ZqaG0c3GJ95+lfRfbV819//0fiOLBxD7LtHR5/+1U9HF5j2P/pacP2Nowus60XTufuPo7/5lbFv19eM1lz/b8YxvDP6m1+9M9rb/c7oBvN5if1vvGKfN9ZZ/9PEbV0fXc8p/RJfP/iV8V3G+bcuT/fKZP3EPGBOwxtHf/Cr6DLLccde+Tr/8XR197Lb//h3OO676fzZpqmv8x/A9v2+fO1/AK+Mr1/Tcl/5N3Efen/3x9ENf39j4vLrbxxdcP1PR3+Q8H4Q+c+672Op/LV7mY5lveUcZPiKlYeO6Wc9Bxnknwxf8e2mOS9pzl9m+x9M/s37y2f+83/9BfDKqPyJLsu0/A7w/Ge8//mq/4I49qD3PYOyz2feD+KVWdljvDLOu/FtBFn3ebl3Dqrs9vXylX5B5F/zdWRs33yer78xnqa/+mny/vt++du+v7I/iPTL9BVE+VUar6IZo+fYzhZ1bV+m26Pj8FRN1+WSVDlNVZKOHVyr1o0b1LUxdTQ6I1Wtao5GM/s2qLWzPaGJ2bGhHepoW6ZuY4SoOau2aH58cZLKemPw6L3Lkr4rW6ovv9L4q0cvdNo3szs21J8iOt+oOfXS4e1G+g/t1l/DklSrOfW1Orw9Ggl9U+9HR8qKic6apljUtGPnjsRt2exPYWnS8oQ8YE7Dfh3obDHOf62W3tgUX81Gbs+/ZXrM7T3G+z3qskybGXmljmg77vvQDu2Kjp1lXJNxwZ3/zLbvV3D7nyn/16/f/NukllWNkT/Dm9XWtja5qflQv44N7dCBhPcDyH+Uv1llftod3rvM5omwAsg/mTu281EdliQ16sYVddbFhjqtXBLJn+G9/2pzD5Dp/geQfwuAr/wX8PWXmUzLH/ksv4M6/372P86x7MpK/RfUsUfkdt/jfOX9QGRa9shn3k3meA6yJJiy24/g0s8x7VLm3zqtbIu2KjFt37zNIefr3T+f2w+w7M8s/fwItvwqZkUT6JH6U1aAUiTDZKPgqv7Gd4yCokddNs3aIvr17J5oRmrUtQ2WxRZZaZ7oSqOubXAqcNPo22D/IyC8Wbvs3o9q+HGs20B4b0tRXkzVK+6KF5Yv2OUB0/mvX+JY2EXl7/z757Tv8WkPr9Rkc2kd8PlPv/2ABbz//mR2/frNvwnrd6Vqrh08yt/sqV7RG+/S0LfBMU385h9/dujVvshflYt/bP/dsWs0pL/+JfkY8rv/hcR7/svG9eeVr/KnAMpvX/tv4VR2Oda/BSS/++497wfBV9mThbzrdA6yw3/Z7UvA6eeUdo73ngFv3zOf2w+67PecfghEEQV6LKZMMzJgttXpW9cYEc3wQOrg78E9RvRauvzyFBVKeLM6bTJ7Nh3bGX1qIM1ZtVtb27ZoZUOdqq0fdORUSUnh13anvHGZP9d4kqUevZDj4w6GOQ/8h/4zZSZQ+puVPJz/wGSw74Gef1fbT5P+HgW6/xnyd/36zb9e1w8S5W/WNGyJ97sPb1ab442c1/NvzT/+HXhhszGlqv2T4dg12veozc1s/vc/3zLPf1m4/jzzev4S5b/89rf/CfJQdgUmT/ueed4Pgtdzn1j2BJ5383AO/JXd/gSafq7SLsvnzyN/2w+47M8g/RCM4g30HFxrNLfKQletBFfr8mhEKXw0ZUDD3G2p8mtXWxfGOAZGsnpM/Xq2bZm6+kKRQreyUUtX7VZbZyhW8aX2jk7YXunpovB1mhxNv749WTiuXDDlgco7Imlm94o2zVatLp9iWt0iP+c/GI777ijY8+99+34Fu/+Z83P9Bph/05aBQaP8zYqqVrUndCVJ1cogwPyTqaF2veD0ZLiqVTfWK8XDiALY/7zLNP8Ff/35knYfrAql/DZ43v9EjmVXEcjfvmea94Pgp+wJPu86noNs1n2+ym4/gk0/x7RzZNp+ukBJVvjdfrBlv/f0Q1CKN9CDDPTrQOcitTbXqm37Zh0OR/tFRiq+rZ29agm80jMVFhiDiv38F9L+5+P6RXAK5PxVtZpmvuhRV8ogT+FwejI8/0bjWFw9MR/LCiT/5VQhld/In2LM+6WTd/NTduc7/bwESrIh39tHoSDQk5ZpcOHK6Wmae8YvrPAHb1oXFpRjB9vV0bZItzcvU9v2HoXDigysvGq3WlL0scyahiUepsHLNVMe6NtgM4hX8st2LCM4K+jz70KO99/b9Rtg/k1bBgaN8jdYTWqJBXlC6nY1eUGA+ccP2yfDTbrWGGPo8B6ngFWB7H8BcZ//Cuz6S7sPGcpV+Z2t/Ydr7vN+EHJQ9uQq7/qRcdmdA3lPv3g65IfT9gus7EfGCPSk1a//fM3liOCmAuP991N1Zyok/ZEZy8wjpy9pTXNRe+GmsDDNSFGQTHnAOlhe0cpVX9hiP/+Fvv9url+/+ddcBn5H3wok37jNf5S/wUmegcPdmAh+809wrE+GYwOdppwQIBv77zb/Frp0+a8Qrj8/5U+2ym8v59/P/hciL8deyNLl/SD4KXuylXfzI7Oy2498p5+b7Uvzm6N1ctD8br8Qyv5sKJXyyz0CPS4c+8t/xAqoNc3W6Q+j4lMESj16NSsFVzb160S0UAiU6Xttb3LMPz4Kl7tpIovA8QEjL9fq69/IxXEU+/kvlv1Pff36zb/x9Wu1dI3zFJppZZD/KH+DMb95d2wGjsPb3QZ5Ivzmn8AkPBneHRtMOl3//8D2P4P8m6xOK9siY3O0Nwf9wzJTzvmvEK6/zMufgMvvDM9/5vtfQDI89sLnnPeDkHnZE3DezbcMy+7M5Tv90m9/frNp1svA+d9+IZT9gSnZ8is9Aj1uDLWrc280Kv+Q2ptbNd980VQ1qaXNfBPtpjl8LjWpxbipXNlQp+oqayav03zTNLtBF7zxSH6tlq6Jp111Q2ss3cJ7N6cftT2vdmiXkQcqF+9OzgOqU3VVk1au2KL2zl6tTCpUC8TQbv3VKPwrF3dYBiI0jiHgvurFfv7zv/9BXL9+8+8OdWw3ptCsbNSazt7kmUuq6lTd0KSVK5qcf7xmkv8of30zT6Me7tugXccj+1GddJ6d+M0/wYlfj1FuZhQJaP8zyb8W1Ss6Ynm1sv4ONXv68ZcJn/mvIK6/zMufQMvvjM9/5vtfMDI+9nzymfcDkXnZE2jeLQCZld2Zy3f6OW0/Wmauqa+VwpvVbQTAguZ7+wVR9gekKMuvYJxXU1Mzan0T9qpX9Mano7UV0uHtLeo4aFdw1WllrGBZptYsFm7JmtTS6TJynTQDS3TdHnUljMgfPR5rFwD7953TLqTDe1vUsVOe0md+c8gxEn14e/p+zpmu73wcZtY0UZ7Pv0XCYKw2+jbo9oSpluP5J+W+N2wxZo9IPn7ndHNz/v1v3y9/+++Xn+s3kfNxmDmnX3XDFjWvanTOO0q/D97zX0T6fS/F8tdO/Fis7I/Nw/al1Oc/7TlQyvWDYi6/7Y/ZXiD7n2H+jUqqe1ydcz88nP8U+5I+7VJdf8HItPxx3vcMym8f5z+z/c9//Rfj+diD3vcsln1J6R4s5zxolnz8zuu5zbvB1n1J5ZdJqnvnqEzL7kz5Sz//+dd5+5GHLp2dO1QVTZOk68e/ILaf6jsinMp+/+kXKM/lV2mgRY8Hx3Yu0u0bN6g7Ok1jVDikcN8GtW1cZJPRC8EOdTQvU9fezTrcFzIGnzMLKRzuUff2Zbo9SxXdsZ2LIgPfmd4L921W18ZF6tjZn9DM0Gl6vkLgmAcUUrgvkoZtzVksqIIw1K5Wu2MIh3R47wa1BT7NZfGf//zuf3DXr9/8e+zgWrU2L1PX3uggliZh4zv2pHkqmmH+c9x3yt+ccTwHLvNPUA4cMlpHKKS//sX9OQ9k/zPMv1HxfTekG//At2Dyn2Pa5fD6y7T8CbT89nH+M93/guHj2PMjmLwfBMfrJ03ZE2jeLQCZlt2Zynf6xbZv2oFwuEddG5eptXNHVvOcAtq+Y97NYdkfiKIrv4JBix4AAFA0Yk+Fi/QJXHVVk7615iGjZYK1tSwAlKZiL7uBYkOLHgAAUByqWnVjvSLNvIv0CdyxoR3xgTLDA0rVgAgASkIJlN1AsSHQAwAAikCdVq4x+tj3PZrUzaF41GmyMVBAdgaABYBCUiplN1BcCPQAAICCY54VrDphho8edRVts/86zW82Zt4Kb1an0wCVAFCkSrPsBooPY/QAAIAC4zBjTrhHXV1rdaAonwibj4mxeQCUolIsu4HiRIseAABQ2KIzY7QV+w8FY6YSgjwAxoKSKbuB4kOLHgAAAAAAgBJBix4AAAAAAIASQaAHAAAAAACgRBRv162GLdq6qrFIBjR0GJhMkVk32tra00yv6nf9Yhc//vDeZWr1PEtJsaef3+P3K0X62fCzj9UretW2uDbFeanT/BU/1o3XNKrSmJ44MubFf+iFF9rp/w0AAABgzCveFj3HBxS2vgegeFW1qnlxraSQurtsgjxVrWrv3K01i81BHkmqVWX9HVpzb69aGszvAwAAAMDYUzyBnqpWtXf2qmVFXeL74QFFHuLXaWVzr7Y2NyUuLwg71NFcq9tNr64+62dS8bv+WEf6+ZOcfm17Q8ayHnVZlmXWmqdOK9fcoUpJ4b0tejapZU6TWu6NLJdCOrx9WXxfNm7W4bAk1WrOql6trLKuCwAAAABjR5EEeqI/Ams1Z/FubW3bovk6qveNpVUNW9TeuVtL62ul+rv4oQcUm4Yfa2llpCtdp02gaH5ztOtYSN0bF6njYPwzx4ba1dG2QYclSbVauqZV1bGlAAAAADC2FEmgp1/Pti1T196eSHetykatudf44Vd5h9asaoy0BAj3qGvjIpvWAAAKV5NaVjU6d9lSk66tN/7se9Th+t6hXdFWRpV3aDlduAAAAACMUUUS6JGkfh3YuVatzcvUFes2Ygj3qGtjrVrb1jIYK1BkYq11nII4DUtiA0EfPrTDsjDu2M5HjVY90py5hdiFEwAAAACyr4gCPZKqmrSyuUNrFtcmvl/ZqDVrtmhlg2X8nqyo0/wVW9TeFtLWTvtXQQ8IW9Wklc29ajfvc1uv2pubVJ3U5a1JLQ7HNL85um5yN5nqFb226wSrTtUNlvPQtiX73fY8pZ8ThzzU1qv25gzzcVWraZ+KaJyahi1aU6/IWD+d9kGc+XMbjb969OpBy8IEb+r96AjtldOT8iUAAAAAjAVFEuip0/zmXm2996HIODySwn09kaf34R4d7gtJlY1aumq3trZl8UduVata2uxm/SkO1SviaZiw+5W1qqx/SG339qolIcgQ/+F8+eXm9+s0OfoFldNkTe6qr0VmTnr/uGVBUKqa1NK2W22rLOehslFL781egMl7+iWrNsaTss1DlbWqrG/U0iXLvAUpqlrVHh2ouKi6L0a7bEmHt6/VAetiKTGvxQZed9Kv/3wt2n0rOV8CAAAAwFhQJIGefg19YPwZ7abVucd4Y0C7OhepbXt0/J53dCL1r8HMGD+m51QqMuvP3g1qM882tDE6GGxhql7RqzajJVS4b7O6NppmUNq4wTRr0W5ToKRfJ4xAT+XXro6+KVUt09djQYpGXZsQWIn+MM/Sefjaj9V+70OaUymF+zaoLXocGzdHzr+kOau2aL5lNb8ySz+Lhi2R4JQi+bjbNHNU5BiWqW3jBnXt2W0zTo296oYtiUGeIuq+WL3iLqPL1gZ1pGypYwgfdZ0u0pWaTKQHAAAAwBhUJIEe6djOFnVtX6bboz9kq6brcsWf3B87uFatGzeoa6NTywA/4lM/x2b92bkj8UdnIf+4rmpVc7S7W98GtXa2JwQDjg3tUEfbMnUbkRJzoGTog2gLiXhXmOpvfEeVUqQlVdJ4KFfr8ko3rS8yU1kfCZQc3r5MrZ07dCy6kaF2tW7vMf6xBp988pF+cfHWKwpvVlvbWj1rmjlKkjTUr2NDO3TA+r6D6hW9psBR5DuDz/tZEktT5y5bEUZ+cunY++9Y3wIAAACAMaVoAj1Sf/ofwEM7stOaITr1s6Tw3pYi6RYTFw3MpP5R3a9n9yQHSmI/nE1dYWJdsw4Zy+qXxAMb0QCcp9YX3oT3LkuYXjvm4J6sDMbrJ/2iYq1XHGeW8sbcwkh9G9TW5v87cyceOHXusgUAAAAAyEQRBXospkxLHCcli8yDwb6w0ybAUNDq9K1rjIBAulY2pkBJbEye4wNGl6hoVxhjquvwf+g/Y59PDmykmh3Jl74NanU8B6bBeAPjM/0ky3f8h/4z5ZekN7/Z3I1sg9o6La3LClz1io5I4DS8WbvSdtnydk6rL7/S+hYAAAAAjCnFG+g5uNYY2yTbLQJMg8H27cnytrLB1PUlbSub+I/q2Jg8Q0f1viSpVpdPsbbY2aFX+yIfi7WgmTJNlVkciDn8wZvWt7LMZ/pZpf2O1Cqv6dAaY0ByhXv0QpEFeaQmLV8caRHmuWWTp5m0sjRGFAAAAAAUuOIN9OSMtzFCSk/izFux8XmMFjsHDhndlYwf4ZEWFfn6kR0/V7kPCOVG+LUWte2NjpvUqDU209sXsvnND2mOvHSBjA8Inn4mLQ+trwAAAACgRBHoCUrDEmMMlkJj6vqStkWEXaAkceatyA/pHr0a7XIT7a5U+R19q8oYvydfP7JN5+D99526d3nlN/0s0n5Hesd2LjIFe+5QW3OT7+/MiYYtWlMf6bLV6dj9LlksmGjTRTCRl9ZXAAAAAFCaCPSk5eaHvmlGpYLTr/98LRoUSNMiwiFQEp95a4nNjFrR9KnV0htbI93c8vQj2zyWUiwQ5Zv/9Ev8jkhAzK9jOxepy+g2p/qH1NYc3ODT2RG9RjLosuVykO34gNdZHCMKAAAAAAocgZ60zF1H7H6k12llW6Q7SqE69pf/MAZUbtQax4BAnVYusQ+UxGfeaox0u3ltt+mHuimIUX+HllamaM2SRdUreiOtRSSF9/5roGMp+U0/STq281EjWFGrpWvspl/37kBnbUKwp91x3/IvGoRx32XLLD4WlOrv0sqka1CmsX8iLYbSDvJc1aqWtpC2doYKOt0AAAAAwCsCPS4ceGGz8UO/VkvXtGq+8UOzuqFVLW27I8GNvZsdZlwqAEPt6ox29al/SO3N8WOQJFU1xY5DdlNex2beirB2i4oHQiKsy4N1dWKrqqomrTTNQuW1W5ArftNPkrRDHduj4xk1ak1nr1Y21FmOpU7VDU1aucJ9V6wDncvUHe1aV/+Q2lcUWN5TJKjSvDjS5S/TWesOdG6IB8ru7VVLQ/w4q6ta1RILtrppMRSZ3n2Ocb4qHYNHAAAAAFB8zqupqRm1volk1StMwYQEIR3e26KOndLKWNBnWYopwCPmN4diLVCsDm+vVUeaFgmZrO98DFEhHd7eoo6D1n1vUktn9Id0j7qSZjqrix27/XK/zNt3Fu7brM7OdD/yI3KbfnHVDVvUvKpRKcf3Dm9WW5v5OOLHb5+3zOnv9Bk/3KV/VOL24/vmlK6uVbWq/d47UqRdSIe3L3KxjcT0kkLq3rgog5ZGAAAAAFB4aNHj0rGdi9S2vSeh5Uq4b7O6Ni5Sx87+pEGLC9GxnYt0+8YN6u4LJRyHwiGF+zaobeMihyCFaZwi2ynmTd23cj4Qc0jhcI+6Ni5Tq8sgT6YyT7+4YwfXqrV5mbr29iic8CXR7+lR9x5z1zg3+vVsm6llz+LdCS1e8ql6RUckoNK3wUUAJo2hdoe0C8WvRVfb6NezXZt12PiOcN+jBHkAAAAAlAxa9AAAAAAAAJQIWvQAAAAAAACUCAI9AAAAAAAAJYJADwAAAAAAQIkg0AMAAAAAAFAiCPQAAAAAAACUCAI9AAAAAAAAJYJADwAAAAAAQIkg0AMAAAAAAFAiijfQ07BFWztD2tq5RfOty3yoXtEb+d62VlVbFwIAAAAAABSw4g30HB9Q2PqeX1Wtal5cKymk7q52HbMuBwAAAAAAKGDFE+ipalV7Z69aVtQlvh8e0JAkqU4rm3u1tbkpcblrdVq55g5VSgrvbdGzkS8FAAAAAAAoGkUS6IkGYWo1Z/FubW3bovk6qveNpVUNW9TeuVtL62ul+ru0ssqyuhsNP9bSSknhzerc2W9dCgAAAAAAUPDOq6mpGbW+WZjqNH/Fj3Xj4kZVWhcZwuEevdC1Vgc8t8ZpUkvnQ5qjkLo3LqI1DwAAAAAAKEpFFOiJqtP8FR1as7g2/la4R10ZBXgi5jeHtKZeUt8G3d65w7oYAAAAAACgKBRJ1y1DVZNWNluCPJJU2ag1a7ZoZYNl/B43GrZEgjzqURdBHgAAAAAAUMSKpEVPneY3d2hNfTzAE+7r0fv1jZoT7tHh8JWaE10WDqm7y233q2iXLenw9lp1HLQuBwAAAAAAKB5F0qKnX0MfGH+Ge9S1sVatnXuMNwa0q3OR2rb3RKZbr3xHJ1wFeaTqFXdpjiJdtgjyAAAAAACAYlckLXoUadXTIB04aMyIVdWq9nvvUKV61NW8VgcU6do1XzvcjdVjtz4AAAAAAEARK5IWPZLUHw/yOBlyGeSJTdcuHd5OkAcAAAAAAJSGIgr0WEyZ5jjNejrVKzq0tFJSeLN20WULAAAAAACUiCLquhWU6ADMIXVvdDtoMwAAAAAAQOEr3hY9GZrfHJllK7y3hSAPAAAAAAAoKWMr0NOwRWvqI122OnemGe8HAAAAAACgyIyhQE+TWlY1Sgqpu6tdx6yLAQAAAAAAityYCfRUr7iLLlsAAAAAAKCkjY1AT1WrmhfXSurRC3TZAgAAAAAAJWoMBHrqtHLNHaqUdHj7Wh2wLgYAAAAAACgRJR/oqV7RoaWVkvo2qOOgdSkAAAAAAEDpOK+mpmbU+iYAAAAAAACKT8m36AEAAAAAABgrCPQAAAAAAACUCAI9AAAAAAAAJYJADwAAAAAAQIkg0AMAAAAAAFAiCPQAAAAAAACUCAI9AAAAAAAAJeK8mpqaUeubuXDTw8/pX26YKkkafOmfdfM9z1s/4trMmx7W/1hzg6ZGvi5ucFCD+/4v3bzpiGVBlsyapJuXflNrF03U1KnStlue0qY3rB8Ciskl+vzBa/VZpXT+H17V+B1/s37ApUt0tmmqPp8zSecqTW+HR3Th//OGyl7O9HsBABgLgqiPqYsBmF2ljv5GLRw8rcFQSFseParn3jhp/VDuzbpK6++6VosWTpD55/2++x5Vyy7TG0gpT4Gem/Tw4X/RDbH/B7X9+zfLezxmptY/97RWWQM8Zi/9s+b4CCK5YmTG1QsnmN48TaAnE/Nm6ePVk6zvSpIu3LZfZS9b37WIrX9S5eve0AXW5aUu4OM/e/cCnbkm8nemN5bn5s3SyOpJOmddIEka0cUP/FkXHbO+PxZU6OHrpmmB9e2okRENfnZKW49/pOfPnLEuTVZ+hXbVTY5UiCMndNvr78lbkVqumRWX6s7JE7WgrCz+9siI9n92Sj3H39PzCbuRZv9NBk/0a/l7Lo4hY+W66Yopun3iRE017bo0osGRzzR44rjuGTZv37TvpwY09+iwaZlZudbPrtOPyuw+5/745ZgGpu9PJ+Gcetu22f6BV3SP0+H6dlaftB3XcKX0le01qjhoXZ6O3/URKOpjfwI+fr/1MXWxG17rEnkqj+3rATv2+zE4MqLBUyf02HvDWaoL7LY7osFTp7Q16R4gKt0+RNLupRPHtSkp7YJmt/9Kcf64F4gFeswLB09r3+N71bIrTwGf5Uu1+8HahABPFIEeb/LUdet59bw0GPtv8KWuDII80sz1/yMhyDO4/Z/1/TlzNGfO9/X97/+ztm/fru3vHjWvErxZ39buZxpjQZ7BwZC23feMbq0jyJOJs1+3v6mUTmpcuptK8/qvnfR9U1WMgj7+/+2DEUnS+a8NqczjTaUknWv6pj41bizPf+1NjX9gv766zng98KrK/zCocbY3lpdp5PEF+vjxBRqZZ102RpSVaerEyfpFXZ0Ozb5CM63LrcrK4pVi2UQtKU9cnFL5Fdp1XZ2emjY5McijyPcumDhZv5hSkfh+oTD2/ReTrTd2klSmqWUTteDSpAUA0qA+9ifo4/dbH1MXp1EgdcnMiumO+zG1rEwLJk/Tndmojh2PP3ovMlsPZ7TdSNr9aFqdDk3P6Avccdx/5fT8FZ+31FL3qG69pUfb9p3WoCRNnaCFD96i3Y9clf7eM3CTtH5dNMhzWtvue0b1dY/GXgR5vMlTi54gJLYKGtz+/dx10YoyRxwHQ7p/Q7eeI7gTqNgTrNfe1Fcf+dC62OIyjTx+tb5w+7Sx5BTY8ceeZo7owm1/9rY/AT8JLUwpniSVl2tm2aW6c/JkLYjel1g/Y3HT9Ov0i4nx/+2fGtmomK5D06Irjmj/wIAeGz4Taw00s7xc0y+dotv1kZa/5/AUK82+ZY/5aVbyvkvlmllepullI3o+8Kd4yWZeMVtPTS6TdEo/f+Wo0rcl9fb96QX9fV75bZHjd31kE/WxFwV2/PNm6ePVl1AXO8q0LpGH+iS9eB0iaeSUnrC0gplZXqElUyZLH72uTSk347UuSD7+aMuXmeVX6M5p0XuRET3R/7o2ObXutW6rvFwzy6aofdrE2IMo1/cmniTvv7vzl2LfE3hLz+K+F5ikmx9ZrAeivVQGD+nW7/3JYwtxP+ItjAa3PaNlv85Tq6ISkacWPQG4qdHU9esldeU6yDPr26YgzyHd+j2CPMG7TF8azZQv/Gu6m0pJ8ybpC8n108aSU1DHf4k+/z8jTzPP/8Mb3m4ss/AktOicOaMjw+/pntf79UTkIa40cbLWO7bSqVCjKcgj48lfWuVXaFcsyHNKP3/ldd2TcHMkHTlzRs+/d9QS5CkMM6+YHLuxe6I/ed+lMzpyZtjmxhyAN9THnhTU8UfqY+piZwVRl5RfofZokEen9PPXjyZ1dTpyZlibjqYL8nh30/R4kCR6/FFHzryne14f0H5JUpl+NM1FC+OoM2d0ZPiolvdH15emTrzU/fouFcT5Kxkn9dzdT+nWbacj/06dq98/cpX1QygSRRvomTmtJv7P4LvKcgcti0la/9BcIzod0v05jXSOIR5vlMbKDYmTgjr+eVP1WaUkndRFnpuYe/xBUdLOaNPAiUhTWpWpxil2U3Fp7CZnMBYYulQ3JXwo2U1TjDF9NKIn+t08dSos06PBrJFT2sP9G5A91MeeFNTxG/UxdbGz/Ncl5Vo/LV/1selB0akTltY6UcN67IRxc1E22XvXsTPD6jll/F1WpumWxX7l//yVniO/NgV7FjaqY7n1EygGRRvoyavl39Rqow3ivvu69Zx1OQLh7UZp7NyQ2Cuk44+35nF37iw8/qAoeWdGjECPNLXMvknPTZdG79I+09YT0bupiWpMdTNWfoVuT3tzBwDUx94U0vHH6+P0582Cujh3yi/VDbHGPDmuj2MPiqT9Hzk3FTry3olYq5wFl6a6ubB3dMQIFI2M5PjhPDJ15Nd7tc24AV247tuBt8Sy95Z69kX+mlrrPZ8hUY4CPTO1/rnDOnzY4fVwuufOhSQySJQU6bLV6WlQqAt15z/W6qX1kdeT118oSZoxc6LaTe+/tL5WL/3jFLXPjCx3MuPvLlH7P07Rk+b1TOs/+Y+X6c7Ar8oRfdI2rJEq6/tB83ijZHdDUn2ZPr/7m/rUGEjw48cX6NO7L3OYccIkut6D8fUSX7N01rpOYC7R2aZZ+vTBbyZt99MHv6mRJof9d3X839RI0yUJq8XMm5W0vYyPtfoyna2UpBFd/LyLc2fh7QdFpnKVj3OhXNMuNv489ZGeH/7I1c3YzEvjfeZT3dwVstiNYyZPGDHGUR+7R31s3W4x1sde5aYu9u5swycabv7Ee1qkkO+6JJ/1cfxB0Sn1pNz0iN6NZqOLyzz/6I+1uvlsJPBeEPk+f6XrpDY9Hor8OXWumnPUquftULQl0ZW62boQnuQo0BOEm/SwKTj0tHm6ramr9LQ1eHT4Oa33Wgq5MWu6FhmbHuw96q+wuvQStf9jrR5fMkHzLONraOKFmrdkSuzm02rJzVP0+A8v07yJF8r2Hm/ihaqaeIn+90n26/vxReUnCt/7rj5o/iR7N5h2N0opJNyQGDdUH99/tT67pizhRuzcNVc731xZ16u0fsCQpZuec02z9Onj1+rMdyfpXGVyH51zlWX64mvS+dYFro+/TF9891p9anP8jrOruDrWS/S5+Sb8/ipjm2X67H7rjap15g7Luo/Hp4/VNVcnrfvx4wts9z8TOcnHQTA9bRscsXnMZ3oSGLlBNDWRTtF9K3bTlfbmrnAd+ehUrLXTgmnXadcV9i2egLSoj51RH1sXF2V9bK1LC6UudutswycabntXx1cN6xOn/JChfNcl+auPTQ+K0ra0OaM9p6IBFY/dr2ItiEf0xPHgDzDf56+k7fpzzlv1HOkOGeezVo05Ci6VqhwFeo5o081zNGdO/PXPL1k/UxxmLo1P+dbb7W8k8KorTTeUp/6m9iePa92Tx9X+jukz3/g73fl38f8lSX83UT+80nTDeOq02p8M6YZN8dc647v+5X9Gbs+CU6b/tvcruljSZ/XDWbvB9PYkKf608XxN0qf3X63PrkmcQnT8tqHYDdm5OTZP4aprjfXKJI3owm2vanx06tF1+/VV0/qunmh6dK7pm/r0uw5Tnxqv8Q+8qvG2M53YHX9Z4vc8YDr+ryXfnF3wiHlbbyqau1wda+yJoRuWHwqe1pWkEV3witdxBuzkJh8HId3TtviTwPjy2NMtx+5bXm7uCtiZ97R8IBrVkqZOrtOh2dN1E/d48Ij62Bn1cSnWx4VSF6d3tmrEEuC5WF/Zc7GLvOhBXuuSAqmPPbW0uVjTXKeNafyhbHVLy+v5K3Untac3OjDzBM2wLs6GNz6S0Y4IPuUo0BOE53WPKVD0/e3R2K2kwe36vmlZ5HWzsjER14za6HRzIe0JaJatoXc+1Lrffag9//WF3v6vL7TnuQ8Vr38v1FTLw50ZV5ebnhr+Te2/O6U9/5XwEb1tfNfbiW8H4oKdFfpa8xRV9l2cpRvMTJuJS+eumaRz4ZMqf+DPGv/Ihzr/WOT981/+UBeEjQ9Vlul/RddV9KbSeOr12psav+7PKnv5bwlP6s5Njtz0Jd0cBeIyffHdyNOc8/8QuXmM7rfZ+ccS9ynG9vj3J37Psfjxn/9Bmpszj09vdSwUvwmP3cCO6GKbm+OvWqdnNa+7br/KXzPef+1Nm3X366vr/qyLbNImE9nPx/7NrJgemzJ98MRxm8EZy7VkovEk8NRHseXmp1v24/qkGNg5ExOn6dB119m/pttGmoIzfFRz+6MDVksqm6hf1F2nXdOvcHeTl2rfrzOmJ82FlPsx3bFlFoJFfWxFfVya9XHh1MWOogGee8PxAM/eSk1p/poqDgYa5onwW5coTTnuWBcGXB974m3bR0Y+s76VWnlFwjTft3ma5tsjv+cv1bkb4/cCR2JBtBy1sFl+pRZKkkLq8TRECqyKKNBTCCbpSmN4HoU+8hD5TuGdD/XD5/5muQE8q8F4YFpVlubeb58090y+RDc4NCfPrgtU1vm12A2mEm4wR3TWzw2mxxsbczPn8197U+Pve0MXpLoBCY+YMv5lGjHdVH71kQ9tbt4u0ZdzjBLe1RNNj6ovSX6i6UFCM2/H479E/8t4Wnf+idQ3lt6e3iY6d51xAx4+qXFJ+5COxx8UgchiPs5YuWaWV2j99Nl6Kjr1+akBLX/P5jFYUrctw5mP9JLRqCezqUwr9LD1BsPxJrUAnHlPy1/p189PmQaunjhZv6ibrYevqMjg+DEmUR8noz72pDTq43zUxSZVIxpu+0Dv2gV4dpZ5TgdPqEv8sQYp6qbpR2Uj2j/Qr7lHh4P53ZQK5y873j4dS8/aaQ5dSwMxSTOXL9XuByM/tpnwyD/PgZ6qqqq0L7h06rTWPZe6krd15LSeNt14zvvGlMhgkddf4qFJ3YiGO9/Vu+lebekGvIvcYNZsrFRF7AYzrOPRG0zrx13wdmNjaib92puRp2bWj0gJN1b6IP4k7uzdV0duYsNDDs2wE5s0Z+Wmx/Rk8Nx3r9XHD87S5/OSm3Pbix+/842xl5t1Pzd48Rvw8w877EcqrvcxG4LPx54k3BzV6am6afqR0VJnMNVTsLKy2HSssUESJUtf+olakvQ0y/p5n04NaO4rr9i/nPY9cGf0/NHXtbx/QE9Ej11lWjB5mp6afYXzDV6qfX+lX08EmU6ppNyPXE61O0ZRH9uiPh6D9bHr/QtY1Yg+aY4GeD7LbYAnQYZ1idKU4451YcD1sSfetj2zLNrHzJt37cYXzJoMz1+qczfW7wWy2pVqkta/eJf6+u9SX/8t+v2DtZo6GNK2Wx5VC615fPMc6JGkoaGhlC+4MzRgfXLo1hd67HfH1f6XvymW2hMv1LxvXKbHozOEeLrJDMBQmb5id4PZ+YHHG0yPNzamG5KLnG4MZf6caSaoebNigw1e+P+EHG+EYk/FsnbT86HKHnhTF8aask/SZ6uvjQx2eHetzlZbPm5mOv7yFMfv+mbdzw2eaXaPTPruu97HbAosH/szODKi/ScGdFv/K1qe4ilYbPyekVPaY7mPinffKtMNl1ojPWc0EG2BbTuo4rDueeUVzX1lIDaDV9E4M6xNR1/X3P4B7Y/d403WU4XcIgl5R31sh/p4LNbHrvcvKKYAz3B9PgM8FjmrS9LVxzniaSatzzRgF7sxBSluOxEPsvxoWooAS7bk7PwhcFMnqnZGNlsOjR0ZBXpQCL7Qnv/5oX64KaR1T36op9+J3A5IiTeZT97sdINZpormGtWke7V9xVslOzRO4z64QPGY/2f6rPKMvnTb0MvjjY27G5JL9Pn/aXzO1IQ5tm54SBc6bsv0VOwPgym24dOxD1V233599YE3dWE4/tjg3DVVOnO/8+wW7o7f/c26u++zl3kz8ci4DJ+73Mec8JuPvbI8wVn++uu6571hHbG7kYqpUGN0/J5TNl1Jz5ibLid330o/YHOROzOse143BaomTtZ6a7wLCAT1sVzXH9THBV0f56EuPjvlS31RaRn75f1xif/nUw7qkvzVx16CTKYxAV0MGn3kvYF4K5iyyWrP10xYOTh/JW/WpYqOXBK8k9r0vUdVX/eo6uue0a33hTSoCVr44C3a/ROCPX4R6PHkpN6Jtl2rTf7hlC9v/9ff9NhzxyOze+w5rZdPxW8yq668TI/fbH9TEqyzGlkxrA86jyu8+BN9Jknhr6hyY41q2ipU5rKhl7cbG5c3TPOm6jPjydbFm6NPCk1NzFM0az5nWtfrU7GMHPtQZff9WV9d96rK/3DS1IR8lj5PepLo9vjd3qy7/D5bPpqJ5+QprVvB5OOcME27PnVync2gfdNiy+26byVMR3ppTu8sc2hY98QGEfQ26CSQCerjNPUH9XFB18f5qIsvOPgVVbTVaMr2Cn0lLEmf6ZNVx3W88wMNN5z10AItm7Jbl+SzPn7+o+hxpQsymY7b1QxdZ7RpID448tTJ0/IYYMnu+St5MyYYwwRIoQF/M06ndlJHdnVr2X2RH9tTVy/W+lnWz8ALAj0evR2KTjFXqyUFmPnePnJKrb87rnV/MT1RvHJC8pSwgQnmhjLC442Nmxum6lp9ujpys3r+H96IzxIRW9d5MMRzTd+Mrev5qZhvf9MFO97Q+G3RArVM/+sKy0fcHL+Xm3WX32fLRzNxSfpfX8vi4JquBJmPcyM+7bobNjc2Z97T1tj9HU+4gKBRH1tQHxd8fZzPujhdwKekmSZQyHl9PPxRrLVLqiDTzCsmxx4eJUz+kMqZ99Sa7y5c8G1mdGKQXM2Ctesd7ZMkTVCtfTNYuESgx6Mj3SEjOj1Bi5YWbpOyxJlAsiHIG0qDxxubdDdM5+bNSpymdUf8hufc5FRPVS/R2bu/qU+NKVaVwVOxoMT3MzlN0h1/hPubdXffZy/jZuJSwj7mXhbycU6Ua5rRH2PwRL/NgH3RV7y5st0N3PPHo0/byvSjuunupiAtMvGA2Cn1uLw3BYJEfUx9HFHo9XE+6+I4p4DPu235Dfhkty4xt34x6mPrR7JmWD1pH/pU6M7J0W5bJ/SYh+M/8t7r+nmsMU3+unBl9/yVsklasmhC5M/B0xmOZedRrKvYaYVyssHSRaDHqzeOqtdohzh10fQ8RKYvUfv6Wr20vlZP/uNlunPmJZrxd4nTuc6YOVFPLjHdOJ06o97/Mn/Cj7Maaf4g2BtKg7cbG9MN0weJT6zOVV+mkQcjT//OGbN/fNUyMKL5qeEXX78sNp3quXmz9Onj1+rMNdKFfxiK3Uw6PWXMWHWtPo0O7jjvEp2zNgOvvkRnm+I3txdue8OSJi5vGF3frLv8PluZNxNPcs2kxCbx1Zfo3LxanZ1nei8Q2cvHOWGaVn0w5WwW5hu4S5NvHM+8p+Wx5swT41OQ5uc+zKMKrZ89XeuvqNBN5eXJ+2xMUf+L6DhGJ47nZ7YKlDDq4wjqY1f1ZzHVxzmri50lBXwqsxXwKZC6JKH1y0T94rrZerjCsjPl5ZpZURH4Q5nnj0YfCpXpR3WJ251ZfoUenh3tCj6iJwbec9FtK1H8+7PRhatAzl+pWv5NrTb6be17/E+ez30mZi6tNbqKndI7b1iXwovzampqRq1vplJVVRXIzFo3PXxY/3KD9d2ol/TPc+5JeSHOXP+cnl5l5LzB7fr+zZtykvkkScuXqu/BSKxx331epn+7UHf+4xR93yhshv5yXD/8n6Ym3TGpPneJ2tdfJvd17Rd6+snjeiywG8sRDXeG9YmMG8oufzeTMdW18ad9VuEhjb/PMgvHvFn6ONqM29GILtz2hspetrspvEwjjxtTuVqFT6p88xu64IroNk6qfJ31xs6fc6abxtQcjiF2/Kn37ezdCyIzmdjcXCdwTM/U3y+Zz92ILn7gz/Hm+B7E9tNW5t/rLEv52JMKPRwdR+fUQIqpV5PNvGK2nppcJumUfp5mus34Z6X9A6/oHpvNzKyYrvZpE2N9sG0l7aNp/9NJWjcI7rc/eKJfy98zB8Tcpn251s+u04/K7D7nfvuy3Qel+f5MBP19Xp3VJ23HNVwpfWV7jSoOWpen43d9L1LVs2apPkd9LKWqP8wc6jKJ+tjKMT1Tf7/kvz7OfV3s3tmGT/T/LRnWJ5WSwhWa4nVwckfuy3L7ctz9+m7KZTf1sVNdHpdBXVB+hXbVTU6x3RHtH3jdZrsu69OK6ToU7QI0ckK3ve49YGTPffonnz+X+54yPd1vX7b7oDTfn4mgvm+S1r94SyTQM3hIt34vF4Ee0zb39aj+7resH4AHtOjJxK4/a5vRqmfhg0t1s3V5Vv1NrZuOq33Pab38zhcaij6Mtxg69YVe/suHWrcpyJtKQ0BPDM3iAwAmS34qZZq1w8b54ZO6eNur+uq6PyffkMV8qLIHhuJTqBrrlT/wqr563xu64JipmXZ4JPAL5fwdb2j8tiFd+NqIzjftQ8RI7BjG2x6D6fhTPm11/1Qw9vTWKuX3R2TeTDzugkdeVflrI4nnOTyiC18bUvkDprEcgpSFfJwbppkvTn2UMsgjl4M8Hhk+quWv9OvnJ05pMDb7h2FkRIOnTumJjyzv592wHusf0BPGPkePMSphivqkmyogCNTH1MelVR/npS52KamFT2AKqy5JrI8Tl0X25YQey0Z1fOY9h+2OaPDUCf283y7I48Hw0Sx14Sqs81dKZv5kcc5b80gVqo224wj5yXBQPlv0FL1Z39buZ+ZGIt+DId3/vW49Z/0MSk+qJ52ppHuCB4wp3p6AxQT6FBBAUaM+Booc9wKFaubypfq90Xslty1rrlJHf6MWShrc9oyW/Tqbs3yVvqAfjIwdb/wpNv2bptbqgf7bmAJuDEj1pDOVdE/wAACAe9THABC0Sbr5kdviQZ7BQ7o1Z0EeBI0WPX4tX6rdD0YHjZIGB0PqffzP2rPrJJFmAAAAAEDBmjnrKi2561otWjgh/pt2X4/++91v5fj3rGmMHp3Wtvv2atMuWvVkikBPEGZdpfV3XavVC43p56RI5rzlKW1itHAAAAAAQEGJd5WKO6199+1VS74CLJZGFGbeJkECXbeC8MZb2nT3U6q/5Rndvy2kwcHT1k8AAAAAAFBYBk9rcN8hbbvvGdXXPZW/II8k7erWslt6tG3f6aTBteENLXoAAAAAAABKBC16AAAAAAAASgSBHgAAAAAAgBJBoAdFaIbGr39Jlb98SRXfnWFdCAAAAADAmEWgB8Vn7mpdMiny5/mzFmmcdTkAAAAAAGMUgR4Un0Pb9DdjMPhzb/TqS+vyVOa2q/KXL+myX7brIusyAAAAAACKHIEeFKG39emmGxT+2Q0a/sPb1oUAAAAAAIxZBHoAuDazYrp2zb5Oh64zXrNn6+ErKjTT+kEAAAAAQF4Q6AHgyk3Tr9NT0yZqapnpzbIyLZg8TU/NvoJgDwAAAAAUAAI9ANKaecVs/WKiJI1o/0C/5r7yiua+8opuGzilQUkqm6ynpldYVwMAAAAA5Nh5NTU1o9Y3U6mqqtLQ0JD1bXgyQxd9d7XGz5qnccbsUZI0enJI504O6fP+bfr0kNPYM/brmn2+4wadPmR+Z4km/LJVF0n6cv86Y1ybGRo3d7W+ujD+PaMnX9aZ37fq0xPmda0y2b6V/Xc4H398/63ix+PS3HZVNs3TqF7Wxz9r1efW5RbjvvukKhZUef/8yaf10abHvA0UXbAq9PB107RA0v6BV3TPcOLSmVfM1lOTyySN6In+17XpTOLyuKvU8WKjFk6VBvf16L/f/ZaOWD8CAAAAAPCFFj05Nm5uuyp++bgmLEgOlJw3qUrjrp6n8oUOU4ZPvlMT1tuv68nkJZqw/nFVNCV+z3mT5umSf3pJE+aaP2wSwPZ9HX9GlmjCL19SZfTVNE+SdJ7mJb5vvC775ZMaPzm+9pd/eFKfG58f/90Z8QW2ZujiWVVSJrOBFbKKS7VAkkZO6DFLkEeSjrx3QvslSWW64dJy6+KYmx+JBHkkaerCRjUvt34CAAAAAOAXgZ5cmtseCa4YrWf+tmOdwj+LzB4V/tkNCv92nYZ/266P99kECSbfqYp/+r4umiSNakif72/XcMK67Wlbm0iSLlutin9q1UWTpC/fbNfwb6PrPx3b5oVNNlOPB7H9jI9/j06bP/ezdbHp1bNvjz7dH2nBdv6C1cnpYjZ3tS6ZJI3qZX3qpZVRgbvp0omSpMFTH9m2wJl5xeRIIEjS1DLzAD4AAAAAgFwj0JMzSzTBaE0S6dbTmtw968Tb+vLEHn1ufV8zNP7W70cCJBrSmd/+UKf/sCcxGJKyu1XcuKsjgZbPd6zT8L/v0ZfR9U48puEdL0tG65WyhFY9QWzfz/H7YQkSGcc4qpctwaPI68Of/TCp65q7Vj0zNH5h5PjO7d+WPuhVNMo17eLIX4Mjlj5Z5RVaP/s6o9uW4eIyx0GZn7u7R/sGI38P7utR5y7rJwAAAAAAfhHoyZFx3/2hLooGSn7vcewWo6WIJJ3b/y9JgQivvty/TqftgimHXooFKC6sWxJ/P4Dt+zr+vNujkTcjfzm26om15hnS56/bpG3GRjTc+a7e9fpq+0RnrV8VoJkV07Wrbpp+VBbp0vXzE6esH7Hxllq+96jq6x7VMsbnAQAAAICsINCTE/GxW3Ty/9VnHgMlF9UZLWEC6BI0+mZ7isGL39GXNl2i/G/f3/EXgs97Il3bnFr1RNNIbz6ZUSCscJWpJqE3Vrlumj47Ms26pMETA7rt9ff0/Ij5MwAAAACAfCHQk2sn3/XYmmWGLogOWvxmvMVNps59+I71rTSC3b734y8QJx7Tp06teibfqfFXG62VevaYlwSgTBXNNarx+mr7ii6wflVGRvRuNIhTVqGHZ9fpFxOjM2y9ouXvDdMyBwAAAAAKCIGegndl0uxU2RPfVjwglMvtFzanVj0XNUbGLyrW1kpuLZg8TQuMrlq3vZI4jfrMMmMgHwAAAABAXhHoybVJNQFOHW4y9wb7sWO8MH3HuQ89dtFyu/1sHX8u2LbqWaKyqyPvfbEvG2MP5XuMnjMa+Cz694j2n+jX3NffS2rFMz0629ZnI0nLAAAAAAC5Q6AnJ97WZ29EpujWpP9dF0+2Lk/FNG6OY5AkPqOVH+axeEYORd8NYvt+jj9bqnRBBvthbdUTG2T65NP6NJZmpeXoiNF3a+SUHnvPMvOWlDAz1/6Phq0LAQAAAAA5RKAnR+JTdFep/NZ2d61fJElv62ws0GIXJJmh8etbPXyfvXHffVITjJYpidODB7P9zI8/YOFBI1BTpYtmJw+qnJapVc+4BY+rYkFkkOlzb/RmoTWPCmCMHunIR6c0KEllk3VnhXWppIopkdm3dEo9aeI8M3+yVLtfvE0dP6E/IAAAAABkA4GenNmj0zteliSdN2mevvrLJzV+7ozEFjKTZ2jc3CUa/90lCe/HW5FUqfzWO3WREWwZN/dOTVj/uC6ZJH25/+lYcOb8y1IFMK60bHOJxv/Dk7GAxejJp/WxZWatYLaf+fEH6kSvPjcCV+cv+GeNn2ve1xkaN3mJ5b1k0fSIynw2siJx5j1tNWZPXzBtth6uKI8tmlkxXbumTZQkDZ44rudjS5LN/Mlt+v3qWk2dOkELV9+ijuXWTwAAAAAA/DqvpqZm1PpmKlVVVRoaMrrhwLNxc9v11aZ5KQMZoyef1kebEsd7GffdeDDGbFRD+mL/v+j0H6TxsaDLOssU6ks04ZcuWt282a6P/32PbcsUf9uPy/T4E82Ibcsq1bZjJt+pin8yBlC2Mfpmuz7899SzZ130Dy/FWkC52mbRK9f62XVGy51kg6cGtPxo6uY8Nz9ylx5YaHpj8JBu/d6fGNMHAAAAAAJEi54c+/JQq4Z/tk6n978cH/vGMHpySF+++bLO7EvuBvTlH36o4R0vJ7z/5ZtP6+Pf/lCn//B2Qher8y+70vSp1EY1pC9PvqzTv12nYYcgjwLcfqbHH6gTj2n4t+3625tDiS1zTg7p8/3t+sjFFOmf90daJ41qSJ+/XupBHkk6o02v9+vnJ4xuXFEjI9o/0J82yCNJb4dOJ74xdYJSt50CAAAAAHhFi54xId6iZ2y0Psm+aIseN61/EDdz+bfVvG6uFk6VpJDur+vWc9YPAQAAAAAyRosewKvJd2r81ZHWPGdctP5B3JFdf1JPyPhn8LQIOQIAAABAsAj0AJ7M0PhbjfF93nxSn56wLkdqk3RlbeSvwd6jjM8DAAAAAAEj0AOkMM40nfy4yUtis4yN6mV9TJctz2b+ZLFWG922tvzaMkgTAAAAAMA3Aj2AoyUa/08vqfKXkVfFP7XqoknS6MmX9fFvW2PTycONq7T+xbv0+9UTImPz3MLYPAAAAACQDQR6AJdis3JtatXndNnyrHbqaQ3u69Gtdd167g3rUgAAAABAEJh1CwAAAAAAoETQogcAAAAAAKBEEOgBAAAAAAAoEQR6UPxmTdLNP1mq3S/epr7+27R+lvUDyK2r1NF/l/pevE27H/m2bp41yfoBAAAAAECWEOjJiSWaEJ256bszrAuRqVlXaf0jt6nvmVv0wOpaTZ06wfoJ5NPUCZq6cK4eeOYW9b14mzqWE/ABAAAAgGwj0IPiNOvb2v1Mo1YvjAR3BgdD2nbfM7q17iltYkanPHtLLXWP6tZberRt32kNKhL0WfjgLdr9yFWaaf04AAAAACAwBHpQfJYv1e5n5mqqJA2GdP8tj2rZ97q1addJHbF+Fnlz5I23tOnup7Ss7hndv++0JGnqwkb9/sVvE+wBAAAAgCwh0IPiMuvb2v1grRHkOaRbv9et57y24Cmv0MOzr9Oh667TodlXEHRIq1w3XTFdu64z0uy663Ro9nStryi3ftDBST1391O6dVsk2KOpc/X7R66yfggAAAAAEAACPSgik7T+IaMlj0K6/3t/8taCp7xC66fP1qG6aVpQZl0IW+UVenh2nX4xeaKR7oayifrRtDrtml5hfjelI782BXsWNqpjufUTAAAAAAC/CPSgeCz/plYb0YZ993XrOetyR0aLlLpp+tHEMg2eGtATp6yfQbJyrZ9mBMVGTujn/a9o7iuvaO4r/fr5iRFJ0tSJ0/Sw+1iPjvx6r7YNRv5euI4uXAAAAAAQNAI9eTND4+a2q2J9ZDauyl++pMvWt2v8ZOvnEo2be6cmrH9SFcY68XWfVMU/tGv8XOsapWKS1q+rjfw5eEidu6zLUyi/VLdPnqipGtH+gX4tPzqsAetnCsDZhk803PyJzloXuOR3/SQVU/SjMkk6pZ+//p6ePxNdcEbPv/e6fm4EyxZM9tL97aQ2PR6K/Dl1rppdteq5Sh0v3qW+/rsYzBkAAAAA0iDQkw+Tl2jC+sdV0TRP40wzTp83aZ4u+aeXNMEhWHPRP7ykiqbv66JJVRpnWXbepCqNu3qeLrqsRKdvnzVdi4zWPIO9R7112TrzkV46dUpP9L+ue4Zj0YqCcbbhEw23vavjq4b1SaV1aXp+13dy06UTJUmDJ47reetCSc8fPxGZUatsopa4Ha5Hknb92VOrnpsfadRC49xPXdjoMjgEAAAAAGMTgZ5cu2y1Kv6pVRdNkr58s13Dv71B4Z/doPBvn9aXxkcubGrXRZbVNLddE66O/Jmwnuk1/Nt1+vgPb1vXLAkzlxoDMOu0ertPWhencUabjh7VpgKL8ZytGrEEaC7WV/ZcrAusH3Tgd/3UyjXt4shfgyMOCXdmJBLoUZlqPI15dFJ7eqMDM09QiYYmAQAAACAvCPTk2Lir52mcpM93rNPwv+/RlyeMBSce0/COlyVJ52meyiytesZdViVJGtXL+tS8nsmXJ96OBYtKzYzaCZE/BkPa43WWrUITDdDcG44HaPZWakrz11Rx0EWYxu/6Hk0tc2quM6J3I0P1eHZkIDpIUq0a07TQee7uHu0zWgAN7uvx1m0PAAAAAMYYAj158OX+dTp9yKblzaGX9Lnx54V1SywLIyJBoFy2gRjRcOe7etfrqy3AsWI0SVcaw/Mo9JG3bluFpGpEw20f6F27AM3OsvQtcfyu78kZDXwW+WvqxEvTdq/y7O3TRmsgqXaaqf+irbfU8r1HVV/3qJbd/Vbxnn8AAAAAyAECPTk2+ma7hh27V72jLx16JX35h3/R34xlFzU9Hhm4ee6MpLF6UICqRvRJczRA85n3AI3f9TMUH4NnstqnVyQEe2aWV2j99GnGYM0ZeOMjGUMyAwAAAAACdF5NTc2o9c1UqqqqNDQ0ZH0bKS3RhF+26iKjNY9zoGeGxq9/XJdMigSEPvz3PUnLL/qHf9b4qxMHYx49+bLO7NumT+1aCZWESVr/4i2RqdX39aj+7resH/DspunX6RcTI9OG3/b6e9lpJVI1ok9u/FjD9UbTGF2sr+z9qv6b2+CM3/UDMPOK2Xpqcvpozv6BV3TPsPXdVK5SR3+jFkoa3PaMlv3aIcIJAAAAAPCEFj0F5crYLFznPnzHulDS2/r833+o4Z/doOEdT+vzk5GA23mT5umSpsd12S+f1IScdutCKmenfKkvKqNBGsP77ttg+V0/CEfee123DZzQ/oSxeEY0OHJKTwwM6ImRyP+ex+qZdamivfEAAAAAAMGhRU9OuGzRM7ddlU3zJEmf77hBpw9ZP2BnhsbNXa2vLoxP1e5+XTdGNNwZ1ifWt9MJV2hK21cCa3ly8yN36YGFkgYP6dbv/cl3C5yctOgxnG34RP/fEvPU5xfrK9sr9N8OXuAqffyunz0Vevi6aVqgU/r5K0dtp2B3tHyp+h6MhHr23feoWhhgGQAAAAACQYueAnJRXSTIM6qXNeI6UPO2vjzUquFN62Jj+Fy48M6SG7vn7VB0Ou5aLZllXVrYLjj4FVW01WjK9gp9JSxJn+mTVcd1vPMDDTekH7La7/pZU3GpFkjSqY+8BXkkzZw20fgrpB6CPAAAAAAQGAI9BWLcd5/UhKsjf5/bvy02+5Z7b+tsVoY5KVNFc41qvL4CbM0jSUe6Q8YsTRO0aGm6WZoKk1PA5t02dwEbv+sHqvwK7Zo2UdKInjjuaXAeSZO0ZNGEyJ+Dp+XQvi3BzJ8s1e4Xb1PHT4rz3AMAAABArhDoybkrE1vbTF6i8f/wpCoWVEmSRk8+rY+TunYt0YRfvqSKf7gzMtPWZOs4PDN0kTlQ9EavvrR8oui9cVS9xnzcUxdND3667xxKCthUegvY+F0/c+XGbFuzdahusqZK2j/wujadsX4ujeXfjAysLWnf4+m74c38yW36/epaTZ06QQtX36KO5dZPAAAAAACiGKMnJ+Jj9KTy5ZtP6+N/f8wmSONufRmBoo822X1HCch4XJdyrZ9d52oq8MET/Vr+ntfIhT8JY/BkMLaR3/WdpUq3Ee0fGNA9w17TyjSDmsvxlmLjM0W5XA8AAAAAxiJa9OTZqIb05cmXdfq36zRsG+SRpD06/bN1Or3/aX3+5pC+tHTRin7H33as04elGuSRpF1/1jajVc/CB5fqZuvyIpXUQscjv+u7F51tq1+3vfJ6BkEeaeZPFntqzSPz+ExRUyfI2qYNAAAAABBBix4Ul1nf1u5n5mqqJA2GdP/3uvWc9TMoSDOXL9XvjRZZ2tej+rvfsn7E0czl31bzurlaOFWSQrq/jvMOAAAAAHZo0YPi8saftOy+UOTvqbV6oP82rS+yWbjGnkm6+ZHb4kGewUO61UOQR5KO7PqTeozT7nYAZwAAAAAYiwj0oPjs6lb9ffFZuFY/c5d2v7hU65dPKupBmkvNzFlXaf0jt2l3/y16YGFklq3BfT0Zjq8zSVdG40S9RzNYHwAAAADGBrpuoXjNukrr77pWq40gQsRpbbvlKW16w/QWcuwqdfQ3yjx+snRa++7bq5ZdlgGmXIrMvDWBblsAAAAAkAYtelC83nhLm+5+SvW3PKP7t4U0OGgZtBf5NXhag/sOadt9z6i+7qkMgzxXaf2Ld8WDPLcQ5AEAAACAVGjRA6CAXaWO/mtVu+9V/fe736LLFgAAAACkQaAHAAAAAACgRNB1CwAAAAAAoEQQ6AEAAAAAACgROeq6lTwLz+DgaYUe36vOXScZdwMAAAAAACAAeWvRM3XqBC188Bb9/sWlutm6EAAAAAAAAJ7lqEWP1STd/JPFemD1BEnS4LZntOzXmUy9DAAAAAAAgKg8teg5qed+vVfbBiP/Ta2tsH4AAAAAAAAAHuUp0AMAAAAAAICg5S/QM2u6Fk2N/Lnvj29ZlwIAAAAAAMCj/AV6ZkxQJM4TUs8u60IAAAAAAAB4lbdAz8xpEyN/DJ7W29aFAAAAAAAA8CxvgZ4ZtZEZtxT6SEesCwEAAAAAAOBZ3gI9b4dOR/6ovVQzrQsBAAAAAADgWd4CPUcGTkX+mDpBM6wLAQAAAAAA4FneAj3a1a37952WVKsHXlyqm2dNsn4CAAAAAAAAHpxXU1Mzan0zlaqqKg0NDVnfztjMnyzV/7261piBK2Jw2zNa9uuTpncAAAAAAACQTv5a9EiSJmlG7cSEIA8AAAAAAAAyk8cWPZO0/sVbtHqqpMGQ7t/wZz33Bq14AAAAAAAAMpW/Fj3LvxkJ8iik+7/XTZAHAAAAAADAp7wFemZOmxj5Y/C03rYuBAAAAAAAgGd5C/TEhD7SEet7AAAAAAAA8Cz/gZ7aSzXT+h4AAAAAAAA8y1ug58jAqcgfU2u1ZJZ1KQAAAAAAALzKW6BHu97RPknSBNXOsC4EAAAAAACAV/kL9GhYocHIXwv/j6usCwEAAAAAAOBRHgM9AAAAAAAACFKeAj2TdPMji7V6auS/wdCw9QMAAAAAAADw6LyamppR65upVFVVWd9KMDQ0ZH1L0lXq6G/UQuvbkjQY0v3f69Zz1vcBAAAAAADgiedAT2aSAz2Dg6cV6n1Vnb9+S0dM7wMAAAAAACAzOQr0AAAAAAAAINvyNEYPAAAAAAAAgkagBwAAAAAAoEQQ6AEAAAAAACgRBHoAAAAAAABKBIEeAAAAAACAEkGgBwAAAAAAoEQQ6AEAAAAAACgRBHoAAAAAAABKxP8PfPmXQGezPf4AAAAASUVORK5CYII=;" vertex="1" parent="1">
          <mxGeometry x="190" y="510" width="520" height="128" as="geometry" />
        </mxCell>
      </root>
    </mxGraphModel>
  </diagram>
</mxfile>
